<?xml version="1.0" encoding="UTF-8" ?>
<!DOCTYPE svg PUBLIC "-//W3C//DTD SVG 1.1//EN" "http://www.w3.org/Graphics/SVG/1.1/DTD/svg11.dtd">
<svg width="55pt" height="88pt" viewBox="0 0 55 88" version="1.1" xmlns="http://www.w3.org/2000/svg">
<g id="#ebc08dff">
<path fill="#ebc08d" opacity="1.00" d=" M 16.02 0.00 L 55.00 0.00 L 55.00 88.00 L 55.00 88.00 C 49.35 82.65 43.64 77.35 38.00 71.99 C 37.15 71.34 36.52 70.22 35.40 70.03 C 29.38 75.93 22.95 81.39 16.92 87.26 L 16.66 88.00 L 16.55 88.00 C 15.56 86.53 16.13 84.65 16.00 83.00 C 16.01 59.68 15.98 36.35 16.02 13.03 C 15.92 8.93 16.23 4.81 15.70 0.73 L 16.02 0.00 M 39.32 19.29 C 38.22 20.72 37.13 22.17 36.19 23.72 C 39.22 25.77 42.70 27.07 45.90 28.84 C 47.13 29.38 48.49 30.55 49.92 29.86 C 51.79 28.54 50.82 25.88 50.93 23.96 C 48.61 22.28 45.61 21.73 43.11 20.30 C 41.92 19.98 40.62 18.55 39.32 19.29 M 30.11 26.65 C 28.51 27.40 26.40 27.71 25.50 29.42 C 24.36 31.61 22.65 33.56 21.96 35.96 C 21.86 38.17 23.52 39.95 24.19 41.98 C 25.83 41.08 27.14 39.58 28.92 38.84 C 28.67 38.05 28.45 37.26 28.24 36.46 C 29.32 35.96 30.30 35.31 31.18 34.51 C 31.85 34.71 33.20 35.10 33.88 35.30 C 33.23 36.49 32.56 37.69 31.76 38.79 C 29.92 39.91 27.97 40.88 26.34 42.29 C 24.15 44.81 26.98 49.20 30.16 47.83 C 32.76 46.53 35.07 44.69 37.82 43.70 C 42.59 41.11 45.05 35.93 47.05 31.15 C 43.04 29.10 38.99 27.14 35.04 24.97 C 33.29 25.19 31.75 26.10 30.11 26.65 M 23.48 47.48 C 21.63 51.05 25.19 55.61 29.06 55.01 C 32.01 54.45 34.32 50.96 32.89 48.09 C 31.03 49.50 28.36 50.15 26.30 48.73 C 25.47 48.11 24.65 46.17 23.48 47.48 Z" />
</g>
<g id="#c19562ff">
<path fill="#c19562" opacity="1.00" d=" M 0.53 12.53 C 5.66 8.70 10.52 4.51 15.70 0.73 C 16.23 4.81 15.92 8.93 16.02 13.03 C 10.69 12.78 5.26 13.39 0.00 12.71 L 0.00 12.52 L 0.53 12.53 Z" />
</g>
<g id="#9c7343ff">
<path fill="#9c7343" opacity="1.00" d=" M 39.32 19.29 C 40.62 18.55 41.92 19.98 43.11 20.30 C 45.61 21.73 48.61 22.28 50.93 23.96 C 50.82 25.88 51.79 28.54 49.92 29.86 C 48.49 30.55 47.13 29.38 45.90 28.84 C 42.70 27.07 39.22 25.77 36.19 23.72 C 37.13 22.17 38.22 20.72 39.32 19.29 Z" />
<path fill="#9c7343" opacity="1.00" d=" M 30.11 26.65 C 31.75 26.10 33.29 25.19 35.04 24.97 C 38.99 27.14 43.04 29.10 47.05 31.15 C 45.05 35.93 42.59 41.11 37.82 43.70 C 35.07 44.69 32.76 46.53 30.16 47.83 C 26.98 49.20 24.15 44.81 26.34 42.29 C 27.97 40.88 29.92 39.91 31.76 38.79 C 32.56 37.69 33.23 36.49 33.88 35.30 C 33.20 35.10 31.85 34.71 31.18 34.51 C 30.30 35.31 29.32 35.96 28.24 36.46 C 28.45 37.26 28.67 38.05 28.92 38.84 C 27.14 39.58 25.83 41.08 24.19 41.98 C 23.52 39.95 21.86 38.17 21.96 35.96 C 22.65 33.56 24.36 31.61 25.50 29.42 C 26.40 27.71 28.51 27.40 30.11 26.65 Z" />
<path fill="#9c7343" opacity="1.00" d=" M 23.48 47.48 C 24.65 46.17 25.47 48.11 26.30 48.73 C 28.36 50.15 31.03 49.50 32.89 48.09 C 34.32 50.96 32.01 54.45 29.06 55.01 C 25.19 55.61 21.63 51.05 23.48 47.48 Z" />
</g>
</svg>
