<?xml version="1.0" encoding="UTF-8" ?>
<!DOCTYPE svg PUBLIC "-//W3C//DTD SVG 1.1//EN" "http://www.w3.org/Graphics/SVG/1.1/DTD/svg11.dtd">
<svg width="122pt" height="146pt" viewBox="0 0 122 146" version="1.1" xmlns="http://www.w3.org/2000/svg">
<g id="#c19562fe">
<path fill="#c19562" opacity="1.00" d=" M 104.95 0.00 L 111.88 0.00 L 111.97 0.37 C 109.66 3.17 107.20 5.85 105.05 8.78 C 105.02 5.85 104.95 2.93 104.95 0.00 Z" />
<path fill="#c19562" opacity="1.00" d=" M 3.37 132.81 C 5.53 132.80 7.69 132.78 9.84 132.77 C 6.68 136.83 3.82 141.16 0.18 144.83 C 1.16 140.80 2.25 136.80 3.37 132.81 Z" />
</g>
<g id="#ebc08dff">
<path fill="#ebc08d" opacity="1.00" d=" M 105.05 8.78 C 107.20 5.85 109.66 3.17 111.97 0.37 C 115.40 15.15 118.56 30.00 122.00 44.78 L 122.00 45.00 C 97.67 78.00 73.34 111.00 49.00 143.99 C 32.68 144.36 16.37 144.78 0.06 145.11 L 0.18 144.83 C 3.82 141.16 6.68 136.83 9.84 132.77 C 40.77 92.73 71.50 52.55 102.37 12.47 C 103.31 11.27 104.18 10.03 105.05 8.78 M 88.78 45.06 C 89.64 47.12 90.57 49.16 91.56 51.17 C 89.11 50.87 86.58 50.05 84.15 50.84 C 83.70 51.79 83.26 52.74 82.83 53.69 C 86.40 54.34 90.05 54.58 93.58 55.41 C 95.06 56.24 96.41 57.29 97.78 58.30 C 98.62 57.38 99.46 56.47 100.29 55.56 C 98.57 54.03 96.46 52.76 95.46 50.60 C 94.01 47.75 92.73 44.82 91.41 41.91 C 90.54 42.96 89.65 44.00 88.78 45.06 M 74.47 65.19 C 74.99 65.73 76.05 66.82 76.57 67.37 C 77.70 66.39 78.67 65.24 79.52 64.00 C 83.03 65.86 85.93 68.65 89.15 70.94 C 89.97 69.90 90.80 68.86 91.61 67.82 C 88.47 65.43 85.36 63.00 82.23 60.59 C 83.05 59.46 83.88 58.33 84.71 57.20 C 84.13 56.66 82.98 55.60 82.41 55.06 C 79.50 58.23 77.17 61.86 74.47 65.19 M 70.62 69.66 C 74.58 72.61 78.53 75.55 82.42 78.58 C 83.60 77.83 84.23 76.59 85.02 75.49 C 81.02 72.40 76.94 69.40 72.89 66.36 C 72.14 67.47 71.40 68.58 70.62 69.66 M 68.48 73.61 C 65.48 75.55 63.58 78.74 61.65 81.67 C 65.62 84.66 69.64 87.59 73.52 90.69 C 74.36 89.62 75.22 88.55 76.05 87.47 C 74.47 86.24 72.34 85.29 71.95 83.11 C 74.32 82.54 76.73 83.05 79.08 83.45 C 79.84 82.37 80.59 81.29 81.37 80.23 C 79.30 79.85 77.23 79.45 75.17 79.01 C 75.12 78.28 75.01 76.81 74.95 76.07 C 73.33 74.32 71.02 72.41 68.48 73.61 M 57.22 87.63 C 56.30 88.78 55.40 89.94 54.60 91.18 C 54.67 92.49 55.70 93.50 56.31 94.60 C 58.76 98.02 60.76 101.77 63.65 104.86 C 64.58 103.22 65.94 101.50 64.83 99.53 C 65.44 97.81 66.86 96.52 67.95 95.08 C 68.52 95.19 69.67 95.40 70.24 95.51 C 71.11 94.61 71.69 93.47 72.33 92.41 C 67.29 90.84 62.29 89.09 57.22 87.63 M 47.68 100.70 C 49.23 101.81 50.75 102.96 52.29 104.10 C 51.36 105.37 50.34 106.59 49.39 107.86 C 47.80 106.64 46.14 105.51 44.42 104.47 C 43.90 105.23 42.85 106.75 42.33 107.51 C 46.25 110.72 50.40 113.63 54.43 116.70 C 55.20 115.65 55.98 114.60 56.75 113.54 C 55.21 112.30 53.66 111.06 52.11 109.84 C 53.04 108.61 53.98 107.38 54.92 106.15 C 56.52 107.33 58.12 108.52 59.74 109.69 C 60.50 108.62 61.27 107.56 62.03 106.49 C 58.02 103.40 53.94 100.39 49.89 97.35 C 49.13 98.45 48.40 99.57 47.68 100.70 M 35.54 121.47 C 37.93 124.36 41.56 127.83 45.66 126.58 C 50.31 125.01 52.42 118.66 49.13 114.80 C 48.27 115.76 47.42 116.72 46.58 117.69 C 47.27 119.53 46.98 121.44 45.84 123.02 C 42.41 123.31 39.67 120.72 38.06 117.97 C 39.13 116.04 40.76 114.67 43.10 115.06 C 43.85 114.10 44.60 113.12 45.33 112.14 C 39.78 108.82 32.70 115.90 35.54 121.47 Z" />
<path fill="#ebc08d" opacity="1.00" d=" M 68.68 77.48 C 69.23 77.40 70.33 77.24 70.88 77.16 C 71.83 79.11 70.36 80.79 69.16 82.17 C 68.54 81.76 67.29 80.93 66.67 80.52 C 67.37 79.52 68.03 78.50 68.68 77.48 Z" />
<path fill="#ebc08d" opacity="1.00" d=" M 59.24 92.35 C 60.88 92.75 62.51 93.16 64.14 93.58 C 63.64 94.70 63.15 95.84 62.68 96.98 C 61.49 95.47 60.36 93.91 59.24 92.35 Z" />
</g>
<g id="#9c7343ff">
<path fill="#9c7343" opacity="1.00" d=" M 88.78 45.06 C 89.65 44.00 90.54 42.96 91.41 41.91 C 92.73 44.82 94.01 47.75 95.46 50.60 C 96.46 52.76 98.57 54.03 100.29 55.56 C 99.46 56.47 98.62 57.38 97.78 58.30 C 96.41 57.29 95.06 56.24 93.58 55.41 C 90.05 54.58 86.40 54.34 82.83 53.69 C 83.26 52.74 83.70 51.79 84.15 50.84 C 86.58 50.05 89.11 50.87 91.56 51.17 C 90.57 49.16 89.64 47.12 88.78 45.06 Z" />
<path fill="#9c7343" opacity="1.00" d=" M 74.47 65.19 C 77.17 61.86 79.50 58.23 82.41 55.06 C 82.98 55.60 84.13 56.66 84.71 57.20 C 83.88 58.33 83.05 59.46 82.23 60.59 C 85.36 63.00 88.47 65.43 91.61 67.82 C 90.80 68.86 89.97 69.90 89.15 70.94 C 85.93 68.65 83.03 65.86 79.52 64.00 C 78.67 65.24 77.70 66.39 76.57 67.37 C 76.05 66.82 74.99 65.73 74.47 65.19 Z" />
<path fill="#9c7343" opacity="1.00" d=" M 70.62 69.66 C 71.40 68.58 72.14 67.47 72.89 66.36 C 76.94 69.40 81.02 72.40 85.02 75.49 C 84.23 76.59 83.60 77.83 82.42 78.58 C 78.53 75.55 74.58 72.61 70.62 69.66 Z" />
<path fill="#9c7343" opacity="1.00" d=" M 68.48 73.61 C 71.02 72.41 73.33 74.32 74.95 76.07 C 75.01 76.81 75.12 78.28 75.17 79.01 C 77.23 79.45 79.30 79.85 81.37 80.23 C 80.59 81.29 79.84 82.37 79.08 83.45 C 76.73 83.05 74.32 82.54 71.95 83.11 C 72.34 85.29 74.47 86.24 76.05 87.47 C 75.22 88.55 74.36 89.62 73.52 90.69 C 69.64 87.59 65.62 84.66 61.65 81.67 C 63.58 78.74 65.48 75.55 68.48 73.61 M 68.68 77.48 C 68.03 78.50 67.37 79.52 66.67 80.52 C 67.29 80.93 68.54 81.76 69.16 82.17 C 70.36 80.79 71.83 79.11 70.88 77.16 C 70.33 77.24 69.23 77.40 68.68 77.48 Z" />
<path fill="#9c7343" opacity="1.00" d=" M 57.22 87.63 C 62.29 89.09 67.29 90.84 72.33 92.41 C 71.69 93.47 71.11 94.61 70.24 95.51 C 69.67 95.40 68.52 95.19 67.95 95.08 C 66.86 96.52 65.44 97.81 64.83 99.53 C 65.94 101.50 64.58 103.22 63.65 104.86 C 60.76 101.77 58.76 98.02 56.31 94.60 C 55.70 93.50 54.67 92.49 54.60 91.18 C 55.40 89.94 56.30 88.78 57.22 87.63 M 59.24 92.35 C 60.36 93.91 61.49 95.47 62.68 96.98 C 63.15 95.84 63.64 94.70 64.14 93.58 C 62.51 93.16 60.88 92.75 59.24 92.35 Z" />
<path fill="#9c7343" opacity="1.00" d=" M 47.68 100.70 C 48.40 99.57 49.13 98.45 49.89 97.35 C 53.94 100.39 58.02 103.40 62.03 106.49 C 61.27 107.56 60.50 108.62 59.74 109.69 C 58.12 108.52 56.52 107.33 54.92 106.15 C 53.98 107.38 53.04 108.61 52.11 109.84 C 53.66 111.06 55.21 112.30 56.75 113.54 C 55.98 114.60 55.20 115.65 54.43 116.70 C 50.40 113.63 46.25 110.72 42.33 107.51 C 42.85 106.75 43.90 105.23 44.42 104.47 C 46.14 105.51 47.80 106.64 49.39 107.86 C 50.34 106.59 51.36 105.37 52.29 104.10 C 50.75 102.96 49.23 101.81 47.68 100.70 Z" />
<path fill="#9c7343" opacity="1.00" d=" M 35.54 121.47 C 32.70 115.90 39.78 108.82 45.33 112.14 C 44.60 113.12 43.85 114.10 43.10 115.06 C 40.76 114.67 39.13 116.04 38.06 117.97 C 39.67 120.72 42.41 123.31 45.84 123.02 C 46.98 121.44 47.27 119.53 46.58 117.69 C 47.42 116.72 48.27 115.76 49.13 114.80 C 52.42 118.66 50.31 125.01 45.66 126.58 C 41.56 127.83 37.93 124.36 35.54 121.47 Z" />
</g>
</svg>
