<?xml version="1.0" encoding="UTF-8" standalone="no"?>
<!-- Created with Inkscape (http://www.inkscape.org/) -->

<svg
   xmlns:dc="http://purl.org/dc/elements/1.1/"
   xmlns:cc="http://creativecommons.org/ns#"
   xmlns:rdf="http://www.w3.org/1999/02/22-rdf-syntax-ns#"
   xmlns:svg="http://www.w3.org/2000/svg"
   xmlns="http://www.w3.org/2000/svg"
   xmlns:sodipodi="http://sodipodi.sourceforge.net/DTD/sodipodi-0.dtd"
   xmlns:inkscape="http://www.inkscape.org/namespaces/inkscape"
   width="385.51367mm"
   height="277.31482mm"
   viewBox="0 0 385.51367 277.31482"
   version="1.1"
   id="svg8"
   inkscape:version="0.92.3 (2405546, 2018-03-11)"
   sodipodi:docname="discord.svg">
  <defs
     id="defs2" />
  <sodipodi:namedview
     id="base"
     pagecolor="#ffffff"
     bordercolor="#666666"
     borderopacity="1.0"
     inkscape:pageopacity="0.0"
     inkscape:pageshadow="2"
     inkscape:zoom="0.35"
     inkscape:cx="839.95827"
     inkscape:cy="526.80994"
     inkscape:document-units="mm"
     inkscape:current-layer="layer1"
     showgrid="false"
     inkscape:window-width="1920"
     inkscape:window-height="1016"
     inkscape:window-x="0"
     inkscape:window-y="27"
     inkscape:window-maximized="1"
     fit-margin-top="0"
     fit-margin-left="0"
     fit-margin-right="0"
     fit-margin-bottom="0" />
  <metadata
     id="metadata5">
    <rdf:RDF>
      <cc:Work
         rdf:about="">
        <dc:format>image/svg+xml</dc:format>
        <dc:type
           rdf:resource="http://purl.org/dc/dcmitype/StillImage" />
        <dc:title></dc:title>
      </cc:Work>
    </rdf:RDF>
  </metadata>
  <g
     inkscape:label="Layer 1"
     inkscape:groupmode="layer"
     id="layer1"
     transform="translate(114.89372,-10.903656)">
    <path
       style="fill:#f15f5f;stroke-width:0.12330097"
       d="m -15.537393,288.15555 c -5.6103,-0.20506 -13.10379,-0.95377 -18.98144,-1.89652 -26.59898,-4.26635 -50.19538,-15.75127 -67.746167,-32.97363 -4.73043,-4.64191 -8.57995,-9.14871 -11.47037,-13.42889 l -1.15835,-1.7153 0.077,-6.17596 c 0.0921,-7.39493 0.2851,-11.99143 0.83123,-19.80072 2.27299,-32.5025 8.83827,-66.22791 19.430277,-99.81214 6.98648,-22.152104 15.95326,-44.593175 24.92014,-62.367344 2.47819,-4.91228 1.83732,-4.12678 5.51715,-6.7622 18.67029,-13.37133 39.3101,-22.97253 60.6523101,-28.21416 9.38056,-2.30386 18.6166699,-3.6943 26.7179499,-4.02223 l 2.046,-0.0828 1.56056,1.86021 c 0.85831,1.02312 1.56056,1.9152 1.56056,1.98239 0,0.19076 -0.0295,0.20123 -3.53201,1.25248 -12.0901,3.62879 -25.36633986,8.57994 -36.35586,13.55832 -17.445,7.90279 -33.90258,17.75606 -44.37624,26.56839 -0.80712,0.6791 -1.58309,1.32803 -1.72437,1.44207 -0.68846,0.55572 0.12098,0.22438 2.5244,-1.03335 5.10554,-2.67176 14.57662,-7.1868 19.36696,-9.23258 20.63218,-8.81129 42.3579401,-15.23049 61.69275,-18.22805 2.75058,-0.42644 6.68923,-0.93607 8.69271,-1.12476 0.77988,-0.0735 2.06615,-0.24196 2.85838,-0.37447 0.79222,-0.1325 2.42302,-0.32391 3.62399,-0.42535 1.20097,-0.10145 2.8277,-0.26661 3.61494,-0.36704 14.26363,-1.81953 32.309311,-2.42452 47.730851,-1.6002 24.623012,1.31616 48.142742,5.81504 71.452912,13.66759 14.26225,4.80455 27.29214,10.46055 41.76821,18.13068 0.86465,0.45813 1.57209,0.77749 1.57209,0.70968 0,-0.26161 -3.89846,-3.43759 -7.20992,-5.87374 -15.5982,-11.4752 -35.81945,-21.94832 -58.44785,-30.27169 -3.34259,-1.2295 -11.00844,-3.82939 -13.85571,-4.69921 -0.97474,-0.29776 -1.79782,-0.60806 -1.82908,-0.68954 -0.0313,-0.0815 0.93269,-1.29 2.14212,-2.68562 l 2.19898,-2.53748 2.03446,0.069 c 13.58316,0.46064 30.46479,4.10757 45.92962,9.92215 15.21193,5.7195 30.29919,13.9476 43.54195,23.74638 l 1.37898,1.02036 2.7171,5.46505 c 13.98575,28.130229 26.27382,63.008744 33.98234,96.455484 6.67198,28.94928 10.29685,57.73185 10.63239,84.42411 l 0.0754,5.99901 -0.32418,0.55318 c -0.49567,0.84579 -2.78679,4.01542 -3.92167,5.4254 -11.14139,13.84209 -26.78246,25.49857 -44.24883,32.97637 -15.42608,6.60431 -31.99254,10.27424 -50.18349,11.11702 -2.11611,0.0981 -2.29445,0.0897 -2.46602,-0.11502 -7.9247,-9.45719 -21.49255,-26.20648 -21.41562,-26.43726 0.0221,-0.0662 0.75755,-0.33068 1.63442,-0.58779 15.76738,-4.62328 30.93683,-12.54518 42.46858,-22.17829 5.50351,-4.59739 10.831,-10.12565 14.13028,-14.6628 0.56709,-0.77988 1.03214,-1.45957 1.03342,-1.51043 0.005,-0.21135 -0.33981,-0.0247 -2.48914,1.34646 -10.68657,6.81726 -21.8111,12.4971 -32.95757,16.8271 -1.22068,0.47419 -3.24303,1.28172 -4.49409,1.79451 -12.77028,5.2343 -26.35933,9.42422 -38.90786,11.99646 -5.78317,1.18545 -13.83958,2.54126 -19.35825,3.25776 -13.900272,1.80473 -28.957962,2.27747 -43.401942,1.3626 -25.904651,-1.64077 -51.426331,-7.49864 -78.049521,-17.91434 -8.4856,-3.3198 -17.94539,-7.71137 -23.67378,-10.9902 -0.67816,-0.38816 -1.74026,-0.97087 -2.36022,-1.29489 -0.61996,-0.32402 -1.39676,-0.80168 -1.72621,-1.06148 -0.32946,-0.25978 -1.15386,-0.79012 -1.83202,-1.17853 -1.78304,-1.02123 -5.12235,-3.03939 -6.42291,-3.88177 -0.61652,-0.39934 -1.15751,-0.72606 -1.20218,-0.72606 -0.19618,0 -0.0201,0.30934 0.92367,1.62256 4.01445,5.58614 10.26862,11.89074 16.93989,17.07651 10.54847,8.19963 22.8814101,14.61753 36.6765201,19.08598 1.38965,0.45012 2.57669,0.86847 2.63788,0.92967 0.11629,0.11628 -6.09214,7.9333 -15.27818,19.23674 -6.4523801,7.93965 -6.6224201,8.14325 -6.7758301,8.11305 -0.0693,-0.0136 -0.56993,-0.041 -1.11245,-0.0609 z m 35.57233,-81.04436 c 7.17473,-0.93239 13.69728,-4.19033 18.94828,-9.46444 6.03033,-6.05685 9.73463,-14.13225 10.63972,-23.19456 0.16361,-1.63813 0.16482,-6.57664 0.002,-8.12966 -0.93096,-8.87952 -4.50241,-16.52299 -10.52951,-22.53479 -2.24902,-2.24333 -3.91735,-3.56065 -6.43306,-5.07963 -5.16101,-3.11621 -10.47734,-4.59483 -16.51066,-4.59209 -5.22686,0.002 -9.3597299,0.96359 -14.0720799,3.27282 -6.3526,3.113 -11.69357,8.43057 -15.2264301,15.15967 -2.94512,5.60963 -4.34715,11.44913 -4.35177,18.12524 -0.004,6.47646 1.2386,11.81829 4.06558,17.47076 5.3987601,10.79468 15.4083901,17.95054 26.68637,19.07801 1.41404,0.14135 5.33208,0.077 6.78155,-0.11133 z m 120.897903,-0.0525 c 5.8955,-0.86834 11.11859,-3.15405 15.84288,-6.93309 1.45471,-1.16365 3.94718,-3.67783 5.17811,-5.22325 3.13611,-3.93731 5.62367,-8.84817 6.96363,-13.74735 2.18805,-7.99999 1.74134,-16.96304 -1.22909,-24.6609 -1.96616,-5.09531 -4.82869,-9.42982 -8.72074,-13.20516 -5.2826,-5.1242 -11.63166,-8.1861 -18.66872,-9.00321 -2.34954,-0.27281 -6.61901,-0.18058 -8.79989,0.19012 -8.8431,1.50308 -16.65631,6.62231 -21.93766,14.37359 -7.82868,11.48992 -8.77811,26.98286 -2.41796,39.45631 3.33429,6.53917 8.31061,11.75575 14.42989,15.12661 3.47006,1.91153 7.56655,3.24316 11.28204,3.66746 0.64425,0.0736 1.36556,0.15635 1.60291,0.18399 0.88586,0.1031 5.28453,-0.0498 6.4746,-0.22512 z"
       id="path3778"
       inkscape:connector-curvature="0" />
  </g>
</svg>
