<?xml version="1.0" encoding="UTF-8" ?>
<!DOCTYPE svg PUBLIC "-//W3C//DTD SVG 1.1//EN" "http://www.w3.org/Graphics/SVG/1.1/DTD/svg11.dtd">
<svg width="71pt" height="42pt" viewBox="0 0 71 42" version="1.1" xmlns="http://www.w3.org/2000/svg">
<g id="#f26060ff">
<path fill="#f26060" opacity="1.00" d=" M 19.61 0.00 L 51.35 0.00 C 61.60 0.56 70.39 9.35 71.00 19.58 L 71.00 22.36 C 70.44 32.60 61.66 41.39 51.43 42.00 L 19.60 42.00 C 9.38 41.41 0.60 32.64 0.00 22.42 L 0.00 19.65 C 0.56 9.39 9.37 0.59 19.61 0.00 M 36.95 11.77 C 39.18 14.61 42.91 16.57 43.54 20.41 C 36.36 20.36 29.18 20.42 22.00 20.40 C 22.00 20.95 22.00 22.05 22.00 22.60 C 29.18 22.58 36.36 22.64 43.54 22.59 C 42.91 26.43 39.18 28.39 36.95 31.23 C 38.54 30.92 40.42 30.94 41.56 29.57 C 44.25 26.86 46.87 24.07 49.71 21.50 C 46.88 18.93 44.25 16.14 41.56 13.43 C 40.42 12.06 38.54 12.07 36.95 11.77 Z" />
</g>
<g id="#f0efefff">
<path fill="#f0efef" opacity="1.00" d=" M 36.95 11.77 C 38.54 12.07 40.42 12.06 41.56 13.43 C 44.25 16.14 46.88 18.93 49.71 21.50 C 46.87 24.07 44.25 26.86 41.56 29.57 C 40.42 30.94 38.54 30.92 36.95 31.23 C 39.18 28.39 42.91 26.43 43.54 22.59 C 36.36 22.64 29.18 22.58 22.00 22.60 C 22.00 22.05 22.00 20.95 22.00 20.40 C 29.18 20.42 36.36 20.36 43.54 20.41 C 42.91 16.57 39.18 14.61 36.95 11.77 Z" />
</g>
</svg>
