<?xml version="1.0" encoding="UTF-8" ?>
<!DOCTYPE svg PUBLIC "-//W3C//DTD SVG 1.1//EN" "http://www.w3.org/Graphics/SVG/1.1/DTD/svg11.dtd">
<svg width="23pt" height="46pt" viewBox="0 0 23 46" version="1.1" xmlns="http://www.w3.org/2000/svg">
<g id="#f26060ff">
<path fill="#f26060" opacity="1.00" d=" M 13.71 0.00 L 23.00 0.00 L 23.00 8.05 C 20.35 8.04 17.42 7.51 15.16 9.24 C 15.19 11.23 15.31 13.22 15.22 15.20 C 17.81 15.20 20.41 15.21 23.00 15.21 L 23.00 15.63 C 22.69 18.08 22.44 20.55 22.06 22.99 C 19.76 23.03 17.46 22.97 15.17 23.01 C 15.18 30.67 15.17 38.34 15.17 46.00 L 5.00 46.00 C 5.00 38.33 5.00 30.66 5.00 22.99 C 3.33 23.01 1.67 23.00 0.00 23.00 L 0.00 15.27 C 1.67 15.27 3.35 15.25 5.02 15.27 C 3.91 8.83 5.46 -0.01 13.71 0.00 Z" />
</g>
</svg>
