<?xml version="1.0" encoding="UTF-8" ?>
<!DOCTYPE svg PUBLIC "-//W3C//DTD SVG 1.1//EN" "http://www.w3.org/Graphics/SVG/1.1/DTD/svg11.dtd">
<svg width="34pt" height="32pt" viewBox="0 0 34 32" version="1.1" xmlns="http://www.w3.org/2000/svg">
<g id="#f8f8f8ff">
<path fill="#f8f8f8" opacity="1.00" d=" M 3.04 0.00 L 5.06 0.00 C 13.43 2.70 2.60 12.41 0.00 4.48 L 0.00 2.89 C 1.06 1.98 2.09 1.02 3.04 0.00 Z" />
<path fill="#f8f8f8" opacity="1.00" d=" M 0.00 9.92 L 0.01 10.60 C 2.57 10.41 5.14 10.35 7.70 10.40 C 7.71 17.60 7.71 24.80 7.71 32.00 L 0.00 32.00 L 0.00 9.92 Z" />
<path fill="#f8f8f8" opacity="1.00" d=" M 11.76 10.41 C 14.19 10.40 16.63 10.40 19.06 10.40 C 19.03 11.12 18.98 12.55 18.95 13.27 C 23.36 6.82 34.44 10.42 34.00 18.37 L 34.00 32.00 L 26.71 32.00 C 25.92 26.80 28.52 20.31 24.92 15.99 C 15.80 14.18 19.91 26.76 19.03 32.00 L 11.77 32.00 C 11.75 24.80 11.79 17.60 11.76 10.41 Z" />
</g>
</svg>
