<?xml version="1.0" encoding="UTF-8" standalone="no"?>
<svg
   xmlns:dc="http://purl.org/dc/elements/1.1/"
   xmlns:cc="http://creativecommons.org/ns#"
   xmlns:rdf="http://www.w3.org/1999/02/22-rdf-syntax-ns#"
   xmlns:svg="http://www.w3.org/2000/svg"
   xmlns="http://www.w3.org/2000/svg"
   viewBox="0 0 286.66666 332"
   height="332"
   width="286.66666"
   xml:space="preserve"
   id="svg2"
   version="1.1"><metadata
     id="metadata8"><rdf:RDF><cc:Work
         rdf:about=""><dc:format>image/svg+xml</dc:format><dc:type
           rdf:resource="http://purl.org/dc/dcmitype/StillImage" /></cc:Work></rdf:RDF></metadata><defs
     id="defs6" /><g
     transform="matrix(1.3333333,0,0,-1.3333333,0,332)"
     id="g10"><g
       transform="scale(0.1)"
       id="g12"><path
         id="path14"
         style="fill:#ffffff;fill-opacity:1;fill-rule:nonzero;stroke:none"
         d="m 993.898,2188.8 c 25.402,-37.3 44.602,-78.3 67.502,-117.2 167.2,-299.4 333.8,-599.2 501.4,-898.5 9.7,-16.4 17.3,-34 25.8,-51 C 1392.9,995.301 1200.8,862.398 1004.9,735.801 991.398,727 977.602,740 966,745.898 777.699,872.102 588.801,997.602 400.199,1123.4 c 24.699,49.9 53.699,97.6 80.301,146.5 171.199,306.3 341,613.4 513.398,918.9 M 971.5,2089.4 C 813,1804.1 654,1519.1 495.5,1233.8 476.801,1200.3 457.602,1167.1 440.898,1132.6 620.801,1015.7 796.102,891.602 978.5,778.602 c 1.398,437.298 1,874.698 0.199,1311.998 l -7.199,-1.2 m 38.8,1.3 c -3.1,-360.2 -0.5,-720.5 -1.3,-1080.7 0.9,-77.602 -2.6,-155.301 2.5,-232.801 46.8,25.903 89.8,57.801 134.5,86.801 134.8,88.801 268.4,179.4 403.4,267.8 -18.1,42.6 -44.5,80.8 -65.3,122 -155.4,278.5 -310,557.4 -465.4,835.8 l -8.4,1.1 M 402.301,1070.5 c 21.097,-11.3 42.199,-22.6 61.398,-37 153.801,-103 308,-205.398 461.903,-308.199 17.296,-9.699 33,-21.602 47.199,-35.5 12.699,-1.801 25.398,-3.5 38.099,-5 32.3,30.398 72,50.097 107.8,76 81.6,54.801 164,108.699 245.3,164.097 75.5,46.801 145.9,101.902 223.9,145.002 C 1403.3,778.199 1220.4,485.801 1035.8,193.898 1022.4,172.5 1012.8,148.199 992.5,132 859.699,339.602 730.102,549.199 598,757.199 533.301,862 465.699,965 402.301,1070.5 m 108,-107.801 c 4.898,-12.301 10,-24.597 15.199,-36.801 C 582.602,842.102 633.5,754.301 689.102,669.5 782.801,519.699 877.898,370.699 971.398,220.699 l 8,-1.097 c 4,140.597 -0.398,281.296 2.403,422 -2.801,4.898 -8.301,14.796 -11.102,19.699 -141.301,91.097 -280,186.301 -420.301,278.898 -13.097,8.102 -26.597,15.403 -40.097,22.5 m 935.399,-18 C 1379.2,901.398 1313.7,856.301 1247.1,813 1168.3,758 1084.5,707.898 1008.2,650.898 c -0.4,-143.796 -1.8,-287.597 0.8,-431.296 l 9.8,0.898 c 131.5,208.602 262.9,417.199 395.3,625.5 20.3,39 50.8,72.602 66.6,113.898 -14.4,8.704 -23.3,-10.296 -35,-15.199" /></g></g></svg>