<?xml version="1.0" encoding="UTF-8" ?>
<!DOCTYPE svg PUBLIC "-//W3C//DTD SVG 1.1//EN" "http://www.w3.org/Graphics/SVG/1.1/DTD/svg11.dtd">
<svg width="418pt" height="95pt" viewBox="0 0 418 95" version="1.1" xmlns="http://www.w3.org/2000/svg">
<g id="#ffffff">
<path fill="#ffffff" opacity="1.00" d=" M 12.51 5.49 C 21.72 -4.69 37.12 0.92 44.05 10.84 C 53.37 6.88 63.86 6.87 73.20 10.79 C 80.17 1.09 95.43 -4.73 104.61 5.40 C 113.67 13.70 107.77 26.02 105.24 35.84 C 112.85 45.86 120.98 60.28 115.65 72.64 C 97.16 80.71 77.98 88.08 58.82 94.55 C 39.63 88.51 20.83 80.58 2.13 73.10 C -3.80 60.66 4.33 46.10 11.93 35.87 C 9.53 25.99 3.70 13.95 12.51 5.49 M 19.84 6.89 C 8.05 13.24 16.08 27.40 18.20 37.01 C 16.74 38.87 15.27 40.72 13.83 42.59 C 24.58 43.70 46.91 38.18 43.32 56.30 C 52.92 50.67 65.06 51.59 74.69 56.67 C 74.42 56.31 73.89 55.58 73.63 55.22 C 71.72 38.22 93.09 43.51 103.50 42.68 C 102.04 40.78 100.58 38.88 99.08 37.02 C 101.18 27.39 109.24 13.21 97.40 6.82 C 87.66 1.69 80.58 11.86 74.17 17.46 C 71.28 16.04 68.25 14.90 65.10 14.20 C 65.26 21.40 65.11 28.61 65.19 35.81 C 60.85 35.92 56.51 35.86 52.17 35.86 C 52.23 28.62 52.18 21.37 52.20 14.13 C 49.04 14.90 45.98 16.06 43.04 17.44 C 36.71 11.79 29.52 1.61 19.84 6.89 M 33.40 56.55 C 33.62 56.18 34.08 55.44 34.31 55.08 C 34.21 54.54 34.11 54.01 34.02 53.48 C 28.42 57.70 28.36 47.30 34.33 50.95 C 34.09 50.07 33.87 49.20 33.64 48.32 C 24.95 45.20 24.62 59.41 33.40 56.55 M 88.50 56.48 C 88.62 55.44 88.71 54.41 88.76 53.38 C 86.80 54.92 84.31 54.74 83.66 52.01 C 84.22 51.54 85.34 50.60 85.90 50.13 C 86.59 50.37 87.97 50.84 88.66 51.08 C 88.67 50.46 88.70 49.21 88.71 48.58 C 79.55 44.48 79.09 60.06 88.50 56.48 M 38.65 81.48 C 45.32 84.22 52.10 86.72 58.82 89.36 C 67.12 84.82 83.32 84.41 80.07 70.96 C 74.26 46.95 26.45 55.93 38.65 81.48 M 80.18 61.75 C 84.33 66.56 86.00 73.59 83.65 79.61 C 93.11 75.71 102.81 72.38 112.23 68.39 C 112.14 67.58 112.05 66.77 111.94 65.96 C 111.65 64.72 111.47 63.46 111.41 62.19 C 101.03 61.52 90.57 62.84 80.18 61.75 M 5.64 62.54 C 5.45 64.56 5.53 66.59 5.48 68.62 C 14.58 72.29 23.79 75.66 32.91 79.27 C 32.63 78.27 32.09 76.28 31.81 75.28 C 31.82 74.13 31.83 72.98 31.84 71.83 C 32.72 68.36 33.74 64.82 36.23 62.12 C 26.04 62.18 15.83 62.12 5.64 62.54 Z" />
<path fill="#ffffff" opacity="1.00" d=" M 144.78 7.82 C 159.84 7.69 174.93 7.86 190.00 7.93 C 193.29 8.64 191.73 12.35 188.88 11.97 C 174.62 12.47 160.30 11.96 146.02 12.22 C 141.61 13.87 141.02 20.03 141.92 24.04 C 142.33 27.08 143.41 29.95 145.25 32.41 C 146.17 32.65 147.08 32.92 147.98 33.22 C 163.00 34.98 179.67 31.17 193.66 35.99 C 180.17 40.06 163.62 37.16 148.99 37.39 C 141.66 38.38 137.99 31.01 136.82 24.98 C 136.71 22.33 136.74 19.67 136.78 17.02 C 137.81 12.86 140.62 9.21 144.78 7.82 Z" />
<path fill="#ffffff" opacity="1.00" d=" M 246.73 9.64 C 247.06 9.15 247.71 8.18 248.04 7.69 C 252.32 6.94 253.13 12.06 252.90 15.16 C 254.08 20.97 253.17 27.06 253.42 32.99 C 251.03 41.11 241.58 39.81 235.00 40.34 C 224.77 39.65 211.42 43.84 203.51 35.68 C 201.72 27.26 201.69 17.42 203.77 9.11 C 204.91 9.23 206.05 9.36 207.20 9.52 C 209.09 17.76 205.74 26.40 208.58 34.53 C 219.53 37.65 230.91 35.32 242.08 35.38 C 245.06 35.65 247.50 34.33 248.23 31.35 C 248.19 24.89 247.78 18.35 246.95 12.03 C 246.86 11.23 246.79 10.44 246.73 9.64 Z" />
<path fill="#ffffff" opacity="1.00" d=" M 264.15 9.80 C 264.80 9.38 265.45 8.94 266.10 8.50 C 266.45 8.69 267.15 9.06 267.49 9.25 C 282.68 8.40 297.95 8.37 313.15 8.65 C 323.33 13.09 318.14 28.73 306.72 24.90 C 312.02 28.88 323.88 32.08 323.02 39.20 C 314.75 36.18 307.34 29.55 299.08 25.64 C 289.19 25.88 279.31 25.71 269.42 25.58 C 269.08 30.39 270.37 35.49 268.40 40.07 C 267.07 40.61 265.85 40.08 264.67 39.50 C 263.58 29.66 264.50 19.70 264.15 9.80 M 268.68 13.50 C 268.74 16.19 268.71 18.90 269.31 21.53 C 280.46 21.03 291.77 22.28 302.83 20.87 C 308.73 22.23 317.74 19.07 311.29 12.60 C 297.08 12.69 282.62 12.85 268.68 13.50 Z" />
<path fill="#ffffff" opacity="1.00" d=" M 333.28 32.05 C 334.92 24.08 330.89 13.63 335.92 7.43 C 336.45 7.77 337.51 8.44 338.03 8.77 C 337.93 19.01 341.56 31.79 335.90 40.59 C 332.41 39.45 332.04 34.97 333.28 32.05 Z" />
<path fill="#ffffff" opacity="1.00" d=" M 355.92 8.48 C 372.59 7.40 389.52 7.90 406.32 7.79 C 414.18 10.05 415.60 19.17 414.14 26.10 C 412.99 31.95 409.15 37.88 402.49 37.74 C 387.91 37.69 373.26 38.42 358.72 37.27 C 353.55 36.61 351.34 31.63 349.89 27.28 C 348.52 20.69 348.65 11.53 355.92 8.48 M 357.97 12.16 C 351.48 17.60 353.42 30.26 360.65 34.30 C 374.73 32.66 389.02 34.11 403.19 33.26 C 404.15 32.94 405.12 32.64 406.10 32.36 C 409.86 26.72 412.11 16.85 405.78 12.30 C 389.86 11.97 373.90 12.27 357.97 12.16 Z" />
<path fill="#ffffff" opacity="1.00" d=" M 81.39 21.53 C 85.36 18.50 91.07 9.09 95.85 15.92 C 96.61 20.66 93.46 25.57 92.87 30.47 C 89.23 27.25 85.48 24.16 81.39 21.53 Z" />
<path fill="#ffffff" opacity="1.00" d=" M 24.54 30.47 C 23.86 24.98 18.33 17.72 23.79 13.37 C 24.62 13.38 26.29 13.40 27.12 13.40 C 30.16 16.05 33.13 18.79 35.90 21.72 C 31.75 24.13 28.09 27.27 24.54 30.47 Z" />
<path fill="#ffffff" opacity="1.00" d=" M 201.91 50.98 C 213.65 45.88 227.52 47.93 240.14 47.97 C 255.80 48.84 250.37 69.34 249.15 79.28 C 242.72 79.25 245.58 70.36 245.71 66.21 C 232.22 66.46 218.73 66.18 205.24 66.14 C 204.93 70.92 206.75 76.02 205.27 80.49 C 196.15 76.99 198.67 59.14 201.91 50.98 M 204.77 56.80 C 204.79 58.73 204.80 60.66 204.79 62.59 C 218.42 62.39 232.05 62.60 245.68 62.61 C 245.40 59.60 245.70 56.37 244.24 53.62 C 243.64 53.47 242.43 53.18 241.83 53.03 C 230.21 51.35 218.42 52.64 206.79 53.33 C 206.10 54.47 205.43 55.64 204.77 56.80 Z" />
<path fill="#ffffff" opacity="1.00" d=" M 268.00 49.12 C 281.95 47.31 296.23 49.79 310.16 47.79 C 317.19 47.97 320.72 56.72 317.51 62.39 C 314.59 64.35 311.12 64.65 307.72 64.95 C 312.27 69.13 326.10 72.83 321.98 79.47 C 314.60 74.51 307.15 69.62 299.17 65.67 C 289.32 64.79 279.01 66.81 269.41 64.61 C 269.04 69.50 270.44 74.75 268.44 79.36 C 268.05 79.67 267.29 80.28 266.90 80.59 C 266.18 80.06 265.46 79.53 264.74 79.01 C 263.49 69.73 264.52 60.25 264.18 50.89 C 263.96 48.73 266.43 47.77 268.00 49.12 M 268.76 52.64 C 268.73 55.51 268.63 58.41 269.33 61.23 C 283.30 60.82 297.33 61.35 311.36 60.32 C 315.14 59.18 313.14 55.06 311.87 52.68 C 297.50 52.44 283.13 52.87 268.76 52.64 Z" />
<path fill="#ffffff" opacity="1.00" d=" M 135.96 66.75 C 133.35 58.11 138.44 46.23 149.00 48.50 C 162.63 50.37 179.60 45.77 190.97 51.08 C 190.47 51.45 189.46 52.19 188.96 52.56 C 174.61 53.56 160.24 53.31 145.87 52.62 C 137.03 55.28 139.04 73.44 148.12 73.96 C 162.16 75.10 176.30 73.74 190.35 74.85 C 192.45 75.19 192.47 78.84 190.11 78.47 C 175.40 78.32 160.65 78.88 145.96 78.18 C 139.99 77.62 136.99 72.04 135.96 66.75 Z" />
<path fill="#ffffff" opacity="1.00" d=" M 365.31 51.81 C 374.14 44.92 387.37 49.94 398.00 48.78 C 403.02 50.51 411.46 46.39 414.00 51.87 C 413.48 52.22 412.44 52.91 411.92 53.26 C 404.33 53.09 396.68 53.73 389.14 52.86 C 383.36 52.37 377.56 52.72 371.78 52.61 C 371.38 52.95 370.60 53.62 370.21 53.96 C 382.98 61.06 399.05 54.86 412.50 59.41 C 422.62 63.79 417.50 80.14 406.96 79.67 C 393.25 80.29 378.92 81.76 365.44 78.60 C 365.78 76.80 363.43 74.71 365.47 73.40 L 365.20 75.62 C 378.82 75.28 392.50 75.94 406.09 75.29 C 410.95 75.20 413.48 70.45 412.71 66.03 C 411.67 64.74 410.49 63.57 409.11 62.65 C 401.77 61.57 394.33 62.49 386.95 62.03 C 379.77 60.45 369.54 62.73 365.38 54.94 C 365.36 54.16 365.33 52.59 365.31 51.81 Z" />
<path fill="#ffffff" opacity="1.00" d=" M 331.63 50.84 C 341.99 46.23 361.07 51.16 361.30 65.02 C 357.05 74.12 343.67 81.11 334.56 77.93 C 334.75 70.96 333.96 63.96 332.80 57.12 C 332.66 54.97 333.12 52.63 331.63 50.84 M 337.36 53.22 C 338.43 60.73 338.90 68.27 338.69 75.86 C 344.66 73.36 351.02 70.80 355.34 65.76 C 355.33 64.32 355.34 62.88 355.36 61.43 C 352.18 54.78 344.09 53.00 337.36 53.22 Z" />
<path fill="#ffffff" opacity="1.00" d=" M 52.52 69.11 C 53.01 67.68 53.82 66.44 55.11 65.62 C 57.46 65.67 59.81 65.66 62.16 65.65 C 62.69 66.06 63.74 66.88 64.26 67.29 C 64.27 67.93 64.30 69.22 64.31 69.86 C 61.28 75.25 55.13 74.32 52.52 69.11 Z" />
</g>
</svg>
