<?xml version="1.0" encoding="UTF-8" ?>
<!DOCTYPE svg PUBLIC "-//W3C//DTD SVG 1.1//EN" "http://www.w3.org/Graphics/SVG/1.1/DTD/svg11.dtd">
<svg width="42pt" height="42pt" viewBox="0 0 42 42" version="1.1" xmlns="http://www.w3.org/2000/svg">
<g id="#e8e8e8f7">
<path fill="#e8e8e8" opacity="0.97" d=" M 26.21 0.00 L 42.00 0.00 L 42.00 15.34 C 41.58 18.57 38.74 20.48 36.69 22.68 C 30.10 29.08 23.92 35.93 17.05 42.00 L 15.10 42.00 C 9.86 37.22 4.84 32.14 0.00 26.94 L 0.00 24.93 C 7.10 17.09 14.90 9.87 22.28 2.29 C 23.26 1.05 24.70 0.35 26.21 0.00 M 23.29 4.31 C 16.21 11.58 8.70 18.52 1.89 26.00 C 6.54 30.77 11.25 35.48 16.02 40.12 C 23.89 32.92 31.11 25.00 38.77 17.57 C 40.50 15.40 39.71 12.51 39.80 9.98 C 39.62 7.53 39.97 5.02 39.44 2.62 C 35.71 1.89 31.79 2.36 27.99 2.12 C 26.09 1.77 24.45 2.95 23.29 4.31 Z" />
<path fill="#e8e8e8" opacity="0.97" d=" M 29.76 6.51 C 32.02 4.54 35.95 6.09 36.26 9.03 C 36.86 11.85 33.82 14.33 31.17 13.41 C 28.20 12.70 27.37 8.38 29.76 6.51 M 31.04 8.09 C 30.88 8.50 30.57 9.31 30.41 9.72 L 31.00 11.02 L 32.28 11.52 C 32.65 11.38 33.37 11.12 33.73 10.99 C 35.30 9.18 32.87 6.82 31.04 8.09 Z" />
<path fill="#e8e8e8" opacity="0.97" d=" M 22.44 13.99 C 22.82 14.01 23.56 14.05 23.94 14.07 C 23.94 14.43 23.93 15.16 23.93 15.53 C 19.78 19.62 15.67 23.74 11.56 27.87 C 11.22 27.86 10.53 27.85 10.18 27.85 C 10.14 27.50 10.04 26.79 10.00 26.44 C 14.14 22.29 18.29 18.14 22.44 13.99 Z" />
<path fill="#e8e8e8" opacity="0.97" d=" M 13.97 31.27 C 17.27 27.90 20.50 24.43 24.03 21.32 L 25.26 22.03 C 25.20 23.44 23.87 24.11 23.06 25.06 C 20.61 27.52 18.15 29.98 15.68 32.43 C 15.25 32.14 14.40 31.56 13.97 31.27 Z" />
</g>
</svg>
