<?xml version="1.0" encoding="UTF-8" ?>
<!DOCTYPE svg PUBLIC "-//W3C//DTD SVG 1.1//EN" "http://www.w3.org/Graphics/SVG/1.1/DTD/svg11.dtd">
<svg width="39pt" height="42pt" viewBox="0 0 39 42" version="1.1" xmlns="http://www.w3.org/2000/svg">
<g id="#f0f0f0ff">
<path fill="#f0f0f0" opacity="1.00" d=" M 0.00 0.00 L 1.26 0.00 C 3.81 0.89 6.24 2.07 8.69 3.18 C 8.69 4.77 8.70 6.37 8.70 7.96 C 18.80 9.41 28.94 10.59 39.00 12.28 L 39.00 23.54 C 38.52 25.33 37.34 27.21 35.34 27.49 C 31.58 27.93 27.78 27.55 24.01 27.67 C 18.86 27.56 13.68 27.98 8.56 27.29 C 8.79 29.03 8.17 32.10 10.63 32.47 C 18.07 32.84 25.55 32.43 33.00 32.63 C 36.08 32.41 38.60 35.75 37.60 38.66 C 37.18 40.41 35.56 41.38 34.01 42.00 L 32.42 42.00 C 29.12 41.41 27.72 37.88 28.79 34.91 C 25.48 34.95 22.17 34.95 18.85 34.92 C 19.97 37.96 18.43 41.56 15.03 42.00 L 14.03 42.00 C 10.74 41.55 9.04 38.06 10.18 35.05 C 8.47 34.11 6.46 32.92 6.44 30.71 C 6.21 22.02 6.41 13.31 6.35 4.61 C 4.19 3.77 2.06 2.84 0.00 1.78 L 0.00 0.00 M 8.70 10.29 C 8.82 14.86 8.43 19.45 8.88 24.00 C 9.71 25.50 11.55 25.32 13.01 25.35 C 19.67 25.30 26.34 25.35 33.01 25.34 C 34.39 25.43 36.15 25.16 36.56 23.58 C 36.80 20.45 36.58 17.29 36.65 14.15 C 27.34 12.85 18.02 11.59 8.70 10.29 M 13.21 35.31 C 11.53 36.39 12.01 39.03 13.88 39.61 C 15.82 40.27 17.89 37.66 16.51 36.02 C 15.94 34.90 14.20 34.46 13.21 35.31 M 31.55 35.50 C 29.89 36.80 30.98 39.62 33.00 39.65 C 34.85 39.85 36.29 37.51 35.09 36.03 C 34.47 34.74 32.48 34.52 31.55 35.50 Z" />
</g>
</svg>
