<?xml version="1.0" encoding="UTF-8" ?>
<!DOCTYPE svg PUBLIC "-//W3C//DTD SVG 1.1//EN" "http://www.w3.org/Graphics/SVG/1.1/DTD/svg11.dtd">
<svg width="48pt" height="48pt" viewBox="0 0 48 48" version="1.1" xmlns="http://www.w3.org/2000/svg">
<g id="#f26060ff">
<path fill="#f26060" opacity="1.00" d=" M 25.85 0.00 L 27.39 0.00 C 29.54 0.55 30.60 2.50 31.54 4.33 C 33.16 3.87 34.85 2.83 36.58 3.48 C 39.32 4.27 40.35 8.28 38.27 10.26 C 37.24 11.08 36.05 11.67 34.92 12.34 C 36.65 16.10 38.31 19.89 40.00 23.66 C 41.88 23.12 44.03 21.78 45.90 23.07 C 47.01 23.63 47.47 24.84 48.00 25.88 L 48.00 27.50 C 47.40 29.60 45.46 30.61 43.67 31.54 C 44.02 33.00 45.03 34.43 44.66 36.00 C 44.33 38.83 40.56 40.38 38.28 38.71 C 37.05 37.75 36.50 36.20 35.67 34.93 C 31.92 36.65 28.12 38.31 24.35 40.00 C 24.87 41.88 26.23 44.04 24.93 45.91 C 24.38 47.03 23.16 47.49 22.11 48.00 L 20.35 48.00 C 18.40 47.27 17.38 45.47 16.50 43.71 C 13.96 45.04 9.86 45.33 8.85 41.93 C 7.62 38.79 10.67 36.78 13.08 35.67 C 11.36 31.91 9.69 28.13 8.01 24.35 C 6.13 24.89 3.98 26.20 2.10 24.92 C 0.97 24.38 0.52 23.14 0.00 22.09 L 0.00 20.66 C 0.53 18.47 2.51 17.42 4.34 16.47 C 3.98 15.00 2.98 13.57 3.35 12.00 C 3.66 9.49 6.69 7.93 8.97 8.91 C 10.80 9.54 11.33 11.64 12.33 13.08 C 16.09 11.36 19.88 9.70 23.65 8.01 C 23.12 6.12 21.80 3.97 23.08 2.09 C 23.64 1.01 24.86 0.58 25.85 0.00 M 15.61 20.80 C 17.35 24.66 19.06 28.53 20.79 32.40 C 24.66 30.66 28.54 28.96 32.40 27.20 C 30.65 23.34 28.95 19.47 27.21 15.61 C 23.35 17.35 19.47 19.07 15.61 20.80 Z" />
</g>
</svg>
