<?xml version="1.0" encoding="UTF-8" ?>
<!DOCTYPE svg PUBLIC "-//W3C//DTD SVG 1.1//EN" "http://www.w3.org/Graphics/SVG/1.1/DTD/svg11.dtd">
<svg width="182pt" height="182pt" viewBox="0 0 182 182" version="1.1" xmlns="http://www.w3.org/2000/svg">
<g id="#f0f0f0ff">
<path fill="#f0f0f0" opacity="1.00" d=" M 1.71 0.36 C 61.24 0.30 120.77 0.30 180.30 0.36 C 180.63 0.70 181.31 1.37 181.64 1.70 C 181.70 61.24 181.69 120.77 181.64 180.30 C 181.31 180.64 180.63 181.31 180.30 181.65 C 120.77 181.69 61.23 181.70 1.70 181.64 C 1.36 181.31 0.69 180.64 0.36 180.30 C 0.30 120.77 0.31 61.23 0.36 1.70 C 0.70 1.36 1.37 0.69 1.71 0.36 M 5.46 5.46 L 5.11 5.83 C 4.89 11.92 4.94 18.03 5.08 24.12 C 5.31 24.38 5.75 24.89 5.98 25.15 C 8.64 25.46 11.32 25.29 14.00 25.31 C 65.33 25.30 116.66 25.30 168.00 25.31 C 170.67 25.29 173.36 25.46 176.03 25.15 C 176.25 24.89 176.69 24.38 176.92 24.12 C 177.06 18.03 177.11 11.91 176.89 5.82 C 176.71 5.65 176.35 5.30 176.17 5.12 C 172.78 4.82 169.38 5.05 166.00 5.00 C 114.00 4.98 62.00 5.04 10.00 4.97 C 8.54 5.18 6.70 4.55 5.46 5.46 M 5.66 30.34 C 5.73 79.00 5.69 127.66 5.68 176.32 C 62.56 176.30 119.44 176.30 176.32 176.32 C 176.31 127.66 176.27 79.00 176.34 30.34 C 172.14 30.07 167.92 30.33 163.71 30.19 L 163.00 29.26 L 162.28 30.19 C 110.08 30.34 57.87 30.05 5.66 30.34 Z" />
<path fill="#f0f0f0" opacity="1.00" d=" M 152.75 13.18 C 153.72 13.14 155.64 13.06 156.61 13.02 C 156.63 14.38 156.65 15.75 156.67 17.11 C 155.69 17.10 153.72 17.09 152.74 17.09 C 152.74 15.79 152.74 14.48 152.75 13.18 Z" />
<path fill="#f0f0f0" opacity="1.00" d=" M 164.97 13.17 C 166.29 13.15 167.61 13.12 168.93 13.10 C 168.92 14.43 168.92 15.76 168.91 17.09 C 167.58 17.08 166.25 17.08 164.93 17.08 C 164.94 15.78 164.95 14.47 164.97 13.17 Z" />
<path fill="#f0f0f0" opacity="1.00" d=" M 13.05 13.11 C 16.45 13.15 19.84 13.16 23.24 13.18 C 23.21 14.16 23.17 16.13 23.14 17.11 C 19.81 17.08 16.47 17.08 13.14 17.10 C 13.11 16.11 13.07 14.11 13.05 13.11 Z" />
<path fill="#f0f0f0" opacity="1.00" d=" M 31.33 13.14 C 34.70 13.15 38.08 13.15 41.46 13.16 C 41.43 14.15 41.39 16.12 41.36 17.10 C 38.06 17.08 34.76 17.08 31.45 17.10 C 31.42 16.11 31.36 14.13 31.33 13.14 Z" />
<path fill="#f0f0f0" opacity="1.00" d=" M 16.19 40.48 C 21.57 40.58 26.94 40.55 32.31 40.51 C 32.31 41.50 32.31 43.50 32.31 44.49 C 26.94 44.45 21.57 44.42 16.20 44.52 C 16.20 43.51 16.20 41.49 16.19 40.48 Z" />
<path fill="#f0f0f0" opacity="1.00" d=" M 71.01 40.77 C 77.66 40.26 84.34 40.66 91.00 40.54 C 97.66 40.66 104.34 40.27 110.99 40.77 C 111.29 50.18 111.05 59.59 111.12 69.01 C 111.04 72.66 111.37 76.33 110.92 79.97 C 110.67 80.19 110.19 80.62 109.95 80.84 C 98.31 81.14 86.64 80.85 74.99 80.98 C 73.70 80.79 71.84 81.42 71.09 79.97 C 70.63 76.33 70.96 72.66 70.88 69.00 C 70.95 59.59 70.71 50.18 71.01 40.77 M 74.89 44.92 C 74.69 54.61 74.83 64.31 74.80 74.00 C 74.59 75.38 75.08 77.23 76.87 76.94 C 85.91 77.08 94.96 76.95 104.00 77.00 C 105.22 77.04 107.46 76.94 107.14 75.12 C 107.25 65.05 107.27 54.98 107.11 44.92 C 101.80 43.93 96.37 44.70 91.01 44.46 C 85.64 44.70 80.20 43.93 74.89 44.92 Z" />
<path fill="#f0f0f0" opacity="1.00" d=" M 125.61 40.70 C 137.73 40.32 149.87 40.65 162.00 40.51 C 163.18 40.71 165.64 40.15 165.66 41.99 C 166.21 54.57 165.25 67.20 166.14 79.77 L 166.08 80.29 C 165.82 80.47 165.31 80.82 165.05 80.99 C 153.37 80.95 141.68 80.93 130.00 80.99 C 128.58 80.81 126.70 81.33 125.73 79.98 C 125.18 77.70 125.42 75.32 125.38 73.01 C 125.56 62.24 125.14 51.46 125.61 40.70 M 129.37 46.91 C 129.24 55.27 129.40 63.64 129.30 72.00 C 129.57 73.44 128.68 75.63 130.42 76.39 C 140.36 76.17 150.30 76.30 160.24 76.32 C 160.50 76.06 161.04 75.54 161.30 75.28 C 161.25 65.37 161.15 55.46 161.35 45.56 C 160.60 43.83 158.42 44.71 156.99 44.44 C 148.64 44.52 140.29 44.41 131.94 44.48 C 130.47 44.17 129.14 45.41 129.37 46.91 Z" />
<path fill="#f0f0f0" opacity="1.00" d=" M 88.61 67.69 C 91.24 60.58 96.00 53.97 102.49 49.92 C 102.19 53.00 101.94 56.14 102.77 59.18 C 96.63 62.44 92.71 68.48 88.62 73.88 C 85.78 70.27 82.23 67.17 78.08 65.16 C 80.40 63.82 82.70 62.42 85.01 61.06 C 86.27 63.22 87.11 65.70 88.61 67.69 Z" />
<path fill="#f0f0f0" opacity="1.00" d=" M 16.20 52.73 C 29.65 52.59 43.11 52.81 56.57 52.62 C 56.61 53.64 56.69 55.69 56.73 56.72 C 43.18 56.44 29.62 56.77 16.06 56.55 C 16.10 55.59 16.16 53.68 16.20 52.73 Z" />
<path fill="#f0f0f0" opacity="1.00" d=" M 16.21 67.88 C 17.53 67.86 18.85 67.84 20.17 67.83 C 20.14 69.14 20.10 70.45 20.06 71.76 C 18.75 71.79 17.44 71.82 16.13 71.86 C 16.16 70.54 16.19 69.21 16.21 67.88 Z" />
<path fill="#f0f0f0" opacity="1.00" d=" M 28.13 71.79 C 28.28 70.44 28.40 69.08 28.54 67.73 C 29.47 67.75 31.34 67.80 32.28 67.83 C 32.25 69.16 32.22 70.48 32.19 71.81 C 30.84 71.80 29.48 71.79 28.13 71.79 Z" />
<path fill="#f0f0f0" opacity="1.00" d=" M 40.51 67.81 C 41.49 67.81 43.45 67.81 44.43 67.81 C 44.46 68.80 44.52 70.79 44.55 71.78 C 43.50 71.78 41.42 71.79 40.38 71.79 C 40.41 70.80 40.48 68.81 40.51 67.81 Z" />
<path fill="#f0f0f0" opacity="1.00" d=" M 52.51 67.54 C 54.17 67.91 55.83 68.29 57.49 68.68 C 57.45 69.98 57.45 71.28 57.48 72.58 C 56.02 72.55 54.56 72.54 53.09 72.55 C 52.88 70.88 52.69 69.21 52.51 67.54 Z" />
<path fill="#f0f0f0" opacity="1.00" d=" M 15.32 79.26 C 17.16 79.29 19.00 79.27 20.84 79.17 C 20.75 81.03 20.74 82.89 20.77 84.75 C 18.96 84.62 17.15 84.60 15.34 84.71 C 15.47 82.89 15.47 81.08 15.32 79.26 Z" />
<path fill="#f0f0f0" opacity="1.00" d=" M 27.43 79.25 C 29.37 79.29 31.32 79.29 33.26 79.25 C 33.23 81.04 33.24 82.83 33.30 84.62 C 31.34 84.62 29.38 84.62 27.43 84.70 C 27.54 82.88 27.53 81.06 27.43 79.25 Z" />
<path fill="#f0f0f0" opacity="1.00" d=" M 40.48 79.99 C 41.47 79.99 43.46 79.99 44.45 79.99 C 44.46 81.31 44.46 82.64 44.45 83.97 C 43.46 83.97 41.47 83.97 40.48 83.98 C 40.48 82.65 40.48 81.32 40.48 79.99 Z" />
<path fill="#f0f0f0" opacity="1.00" d=" M 52.68 79.99 C 53.66 79.99 55.61 79.99 56.58 79.99 C 56.59 81.32 56.59 82.66 56.58 83.99 C 55.60 83.98 53.65 83.96 52.67 83.95 C 52.67 82.63 52.67 81.31 52.68 79.99 Z" />
<path fill="#f0f0f0" opacity="1.00" d=" M 88.20 91.20 C 96.07 91.42 103.95 91.38 111.82 91.22 C 111.75 93.08 111.75 94.94 111.83 96.80 C 103.95 96.64 96.07 96.61 88.20 96.81 C 88.32 94.94 88.32 93.07 88.20 91.20 Z" />
<path fill="#f0f0f0" opacity="1.00" d=" M 142.66 91.33 C 150.66 91.28 158.67 91.43 166.67 91.24 C 166.54 93.08 166.54 94.93 166.66 96.77 C 158.66 96.60 150.65 96.76 142.65 96.68 C 142.72 94.90 142.73 93.11 142.66 91.33 Z" />
<path fill="#f0f0f0" opacity="1.00" d=" M 16.22 92.00 C 17.19 92.00 19.15 92.01 20.12 92.01 C 20.12 93.33 20.12 94.66 20.12 95.99 C 19.15 95.99 17.19 96.00 16.22 96.00 C 16.21 94.67 16.21 93.33 16.22 92.00 Z" />
<path fill="#f0f0f0" opacity="1.00" d=" M 28.35 92.00 C 29.33 92.00 31.28 92.00 32.26 92.01 C 32.26 93.33 32.26 94.66 32.26 95.99 C 31.28 96.00 29.33 96.00 28.35 96.00 C 28.34 94.67 28.34 93.33 28.35 92.00 Z" />
<path fill="#f0f0f0" opacity="1.00" d=" M 40.48 92.00 C 41.47 92.00 43.46 92.00 44.45 92.00 C 44.45 93.33 44.45 94.67 44.45 96.00 C 43.46 96.00 41.48 96.00 40.48 96.00 C 40.48 94.67 40.48 93.33 40.48 92.00 Z" />
<path fill="#f0f0f0" opacity="1.00" d=" M 52.68 92.00 C 53.65 92.00 55.61 92.00 56.58 92.00 C 56.59 93.33 56.59 94.67 56.58 96.00 C 55.61 96.00 53.65 96.00 52.68 96.00 C 52.68 94.66 52.68 93.33 52.68 92.00 Z" />
<path fill="#f0f0f0" opacity="1.00" d=" M 70.88 92.01 C 74.23 92.00 77.58 92.00 80.94 92.03 C 80.94 93.34 80.94 94.66 80.94 95.97 C 77.58 96.00 74.23 96.00 70.88 95.99 C 70.88 94.66 70.88 93.33 70.88 92.01 Z" />
<path fill="#f0f0f0" opacity="1.00" d=" M 125.35 92.11 C 128.74 91.98 132.14 91.97 135.54 92.14 C 135.53 93.38 135.53 94.62 135.54 95.86 C 132.14 96.05 128.74 96.04 125.34 95.88 C 125.34 94.62 125.35 93.36 125.35 92.11 Z" />
<path fill="#f0f0f0" opacity="1.00" d=" M 16.11 104.10 C 17.45 104.13 18.78 104.15 20.11 104.17 C 20.12 105.49 20.12 106.80 20.12 108.11 C 18.82 108.09 17.52 108.07 16.22 108.04 C 16.19 106.73 16.15 105.41 16.11 104.10 Z" />
<path fill="#f0f0f0" opacity="1.00" d=" M 28.27 104.14 C 29.60 104.14 30.92 104.14 32.25 104.14 C 32.26 105.48 32.26 106.81 32.26 108.16 C 30.94 108.09 29.61 108.01 28.29 107.93 C 28.29 106.67 28.28 105.40 28.27 104.14 Z" />
<path fill="#f0f0f0" opacity="1.00" d=" M 40.50 104.09 C 41.49 104.10 43.45 104.11 44.43 104.11 C 44.45 105.44 44.46 106.77 44.46 108.10 C 43.46 108.10 41.47 108.10 40.47 108.10 C 40.48 106.76 40.49 105.43 40.50 104.09 Z" />
<path fill="#f0f0f0" opacity="1.00" d=" M 52.69 104.16 C 53.65 104.13 55.59 104.08 56.55 104.05 C 56.57 105.40 56.59 106.75 56.60 108.11 C 55.61 108.10 53.65 108.10 52.67 108.09 C 52.67 106.78 52.68 105.47 52.69 104.16 Z" />
<path fill="#f0f0f0" opacity="1.00" d=" M 70.91 110.69 C 73.89 109.99 76.97 110.24 80.00 110.23 C 87.34 110.23 94.67 110.23 102.00 110.23 C 105.03 110.24 108.11 109.99 111.09 110.69 C 111.10 123.91 111.25 137.14 111.01 150.36 C 104.36 150.92 97.66 150.48 90.99 150.62 C 84.34 150.49 77.66 150.91 71.02 150.36 C 70.72 137.14 70.92 123.91 70.91 110.69 M 75.50 115.11 C 75.62 124.08 75.53 133.05 75.56 142.02 C 75.95 143.21 74.28 145.48 75.99 145.84 L 75.14 145.89 C 76.91 147.02 79.04 146.65 81.01 146.72 C 87.67 146.66 94.33 146.67 100.99 146.72 C 102.96 146.65 105.09 147.03 106.86 145.89 L 106.01 145.84 L 106.59 145.68 C 106.32 135.59 106.45 125.29 106.50 115.11 C 101.72 114.35 96.83 114.95 92.00 114.76 C 86.51 114.96 80.95 114.34 75.50 115.11 Z" />
<path fill="#f0f0f0" opacity="1.00" d=" M 125.34 111.02 C 126.53 110.68 127.71 110.23 128.97 110.23 C 140.99 110.11 153.02 110.46 165.04 110.03 C 165.30 110.20 165.81 110.54 166.07 110.70 L 166.16 111.21 C 165.27 123.47 166.14 135.80 165.72 148.08 C 165.52 148.97 165.28 149.84 164.98 150.70 C 151.97 150.64 138.94 150.37 125.93 150.90 C 125.66 150.64 125.12 150.11 124.84 149.85 C 125.25 146.92 125.51 143.97 125.44 141.01 C 125.32 131.01 125.52 121.02 125.34 111.02 M 130.44 114.13 L 130.77 115.24 L 130.32 115.24 L 129.36 115.20 C 129.46 125.59 128.99 136.00 129.62 146.38 C 140.00 147.05 150.42 146.54 160.82 146.66 L 160.79 145.68 L 160.79 145.25 L 161.91 145.58 C 161.63 135.21 162.32 124.81 161.53 114.46 C 151.19 113.77 140.80 114.38 130.44 114.13 Z" />
<path fill="#f0f0f0" opacity="1.00" d=" M 143.61 134.69 C 146.24 127.58 151.00 120.97 157.49 116.92 C 157.19 120.00 156.94 123.14 157.77 126.17 C 151.63 129.44 147.71 135.48 143.62 140.88 C 140.78 137.27 137.23 134.17 133.08 132.16 C 135.40 130.82 137.69 129.42 140.01 128.06 C 141.26 130.22 142.11 132.70 143.61 134.69 Z" />
<path fill="#f0f0f0" opacity="1.00" d=" M 16.15 122.32 C 21.53 122.44 26.92 122.37 32.30 122.37 C 32.31 123.37 32.32 125.36 32.33 126.36 C 26.96 126.28 21.60 126.29 16.24 126.36 C 16.21 125.35 16.17 123.33 16.15 122.32 Z" />
<path fill="#f0f0f0" opacity="1.00" d=" M 16.13 134.58 C 29.63 134.38 43.14 134.75 56.63 134.39 C 56.63 135.45 56.63 137.55 56.63 138.61 C 43.14 138.25 29.63 138.62 16.13 138.42 C 16.13 137.46 16.13 135.54 16.13 134.58 Z" />
<path fill="#f0f0f0" opacity="1.00" d=" M 16.19 149.80 C 17.53 149.78 18.88 149.77 20.22 149.77 C 20.15 151.08 20.07 152.40 19.99 153.71 C 18.71 153.74 17.44 153.77 16.17 153.81 C 16.18 152.47 16.19 151.13 16.19 149.80 Z" />
<path fill="#f0f0f0" opacity="1.00" d=" M 28.39 149.72 C 29.36 149.72 31.31 149.72 32.29 149.72 C 32.29 150.70 32.30 152.67 32.31 153.65 C 31.28 153.69 29.23 153.76 28.21 153.80 C 28.25 152.78 28.34 150.74 28.39 149.72 Z" />
<path fill="#f0f0f0" opacity="1.00" d=" M 40.50 149.72 C 41.48 149.72 43.46 149.72 44.45 149.72 C 44.48 150.72 44.53 152.72 44.56 153.72 C 43.51 153.72 41.41 153.74 40.37 153.74 C 40.40 152.74 40.46 150.72 40.50 149.72 Z" />
<path fill="#f0f0f0" opacity="1.00" d=" M 52.67 149.69 C 53.64 149.70 55.58 149.72 56.55 149.73 C 56.60 150.74 56.70 152.75 56.75 153.76 C 55.71 153.74 53.64 153.70 52.61 153.67 C 52.62 152.68 52.65 150.69 52.67 149.69 Z" />
<path fill="#f0f0f0" opacity="1.00" d=" M 88.21 161.17 C 96.08 161.31 103.97 161.34 111.84 161.15 C 111.75 162.99 111.74 164.84 111.79 166.68 C 103.94 166.53 96.08 166.49 88.24 166.70 C 88.31 164.85 88.31 163.01 88.21 161.17 Z" />
<path fill="#f0f0f0" opacity="1.00" d=" M 142.63 161.31 C 150.63 161.16 158.64 161.36 166.64 161.20 C 166.55 163.02 166.55 164.84 166.64 166.66 C 158.65 166.49 150.66 166.60 142.68 166.60 C 142.74 164.84 142.72 163.07 142.63 161.31 Z" />
<path fill="#f0f0f0" opacity="1.00" d=" M 16.22 161.96 C 17.52 161.93 18.82 161.90 20.12 161.88 C 20.12 163.20 20.12 164.51 20.11 165.83 C 18.78 165.85 17.45 165.87 16.12 165.90 C 16.15 164.58 16.19 163.27 16.22 161.96 Z" />
<path fill="#f0f0f0" opacity="1.00" d=" M 28.33 161.89 C 29.32 161.90 31.28 161.91 32.26 161.91 C 32.26 163.21 32.26 164.51 32.25 165.82 C 31.29 165.86 29.35 165.93 28.39 165.97 C 28.36 164.61 28.34 163.25 28.33 161.89 Z" />
<path fill="#f0f0f0" opacity="1.00" d=" M 40.47 161.90 C 41.47 161.90 43.46 161.90 44.46 161.90 C 44.46 163.23 44.45 164.55 44.44 165.88 C 43.45 165.89 41.48 165.90 40.50 165.91 C 40.48 164.57 40.48 163.23 40.47 161.90 Z" />
<path fill="#f0f0f0" opacity="1.00" d=" M 52.67 161.90 C 53.65 161.90 55.61 161.90 56.60 161.90 C 56.59 163.24 56.57 164.59 56.56 165.94 C 55.59 165.92 53.66 165.87 52.69 165.84 C 52.68 164.53 52.67 163.22 52.67 161.90 Z" />
<path fill="#f0f0f0" opacity="1.00" d=" M 70.90 161.91 C 74.22 161.92 77.54 161.92 80.86 161.90 C 80.88 162.89 80.93 164.89 80.95 165.88 C 77.58 165.85 74.21 165.84 70.84 165.82 C 70.86 164.84 70.89 162.88 70.90 161.91 Z" />
<path fill="#f0f0f0" opacity="1.00" d=" M 125.45 161.90 C 128.78 161.92 132.10 161.92 135.42 161.90 C 135.45 162.88 135.50 164.86 135.53 165.85 C 132.13 165.84 128.73 165.84 125.33 165.86 C 125.36 164.87 125.42 162.89 125.45 161.90 Z" />
</g>
<g id="#ed6261f8">
</g>
</svg>
