<?xml version="1.0" encoding="UTF-8" ?>
<!DOCTYPE svg PUBLIC "-//W3C//DTD SVG 1.1//EN" "http://www.w3.org/Graphics/SVG/1.1/DTD/svg11.dtd">
<svg width="294pt" height="174pt" viewBox="0 0 294 174" version="1.1" xmlns="http://www.w3.org/2000/svg">
<g id="#ed7372f9">
</g>
<g id="#f0f0f0ff">
<path fill="#f0f0f0" opacity="1.00" d=" M 150.13 2.06 C 150.91 0.60 152.66 1.14 154.00 1.00 C 187.33 1.01 220.66 1.01 253.99 1.00 C 255.33 1.14 257.09 0.60 257.88 2.06 C 258.14 6.70 257.93 11.35 258.00 16.00 C 257.93 62.37 258.14 108.74 257.89 155.11 C 256.33 155.34 254.77 155.47 253.20 155.55 C 252.55 156.58 251.93 157.72 252.08 159.00 C 252.08 162.03 251.86 165.10 252.30 168.11 C 252.81 169.66 254.77 169.12 256.01 169.29 C 266.67 169.27 277.33 169.21 287.99 169.30 C 290.18 168.98 290.71 171.94 288.93 172.86 C 287.29 173.04 285.64 172.99 284.00 173.00 C 229.66 172.98 175.32 173.02 120.98 172.98 C 119.71 173.20 117.71 172.64 118.07 170.97 C 117.90 169.32 119.83 169.18 120.98 169.25 C 131.32 169.27 141.66 169.24 152.00 169.29 C 153.22 169.11 155.19 169.66 155.69 168.12 C 156.15 165.10 155.91 162.03 155.92 158.99 C 156.06 157.72 155.45 156.58 154.80 155.55 C 153.23 155.46 151.66 155.34 150.11 155.11 C 149.86 109.08 150.07 63.04 150.00 17.00 C 150.07 12.02 149.85 7.03 150.13 2.06 M 154.44 5.46 C 154.67 7.53 154.06 9.67 154.43 11.69 L 155.03 11.97 L 154.25 12.24 C 157.09 13.11 160.08 12.72 163.00 12.78 C 191.00 12.79 219.00 12.76 247.00 12.80 C 249.31 12.70 251.80 13.21 253.89 11.89 L 253.04 11.84 L 253.63 11.71 C 253.81 9.65 253.35 7.54 253.57 5.46 C 220.53 5.59 187.48 5.59 154.44 5.46 M 154.30 17.34 C 154.62 20.55 154.43 23.78 154.47 26.99 C 154.51 68.42 154.41 109.84 154.52 151.27 C 187.51 151.26 220.49 151.26 253.48 151.27 C 253.60 107.84 253.47 64.42 253.54 20.99 C 253.21 19.76 254.59 17.61 252.97 17.03 L 253.75 16.76 C 250.91 15.89 247.91 16.28 244.99 16.22 C 216.33 16.21 187.67 16.25 159.01 16.19 C 157.47 16.49 155.10 15.47 154.30 17.34 M 160.80 155.63 C 159.23 155.85 159.48 157.84 159.37 158.98 C 159.30 162.33 159.29 165.69 159.74 169.01 C 162.15 169.23 164.57 169.31 167.00 169.28 C 194.02 169.16 221.06 169.44 248.08 169.14 C 249.17 165.54 248.61 161.72 248.67 158.03 C 248.80 156.59 247.61 155.07 246.06 155.49 C 219.71 155.46 193.36 155.50 167.00 155.47 C 164.94 155.50 162.85 155.31 160.80 155.63 Z" />
<path fill="#f0f0f0" opacity="1.00" d=" M 120.24 9.03 C 128.13 13.52 135.89 18.26 143.87 22.62 C 136.24 27.66 128.07 31.86 120.24 36.59 C 120.24 33.88 120.23 31.18 120.24 28.47 C 114.16 28.47 108.08 28.46 102.01 28.46 C 100.50 28.42 98.64 28.51 97.83 30.02 C 96.96 31.16 97.33 32.68 97.22 34.00 C 97.25 42.00 97.23 50.00 97.23 58.00 C 93.49 58.00 89.74 58.00 86.00 58.00 C 86.04 48.98 85.93 39.96 86.05 30.95 C 86.31 23.72 92.68 17.33 99.94 17.17 C 106.70 17.07 113.47 17.17 120.23 17.13 C 120.24 14.43 120.23 11.73 120.24 9.03 M 123.24 14.22 C 123.23 16.19 123.23 18.16 123.23 20.13 C 115.82 20.15 108.41 20.12 100.99 20.13 C 95.01 19.84 89.36 24.92 89.06 30.91 C 88.91 38.94 89.05 46.97 89.00 55.00 C 90.74 55.00 92.49 55.00 94.24 55.00 C 94.26 47.32 94.20 39.65 94.25 31.97 C 94.13 28.63 97.03 25.58 100.37 25.52 C 107.99 25.41 115.62 25.48 123.24 25.49 C 123.23 27.43 123.23 29.38 123.23 31.32 C 128.13 28.45 133.26 25.91 137.88 22.59 C 132.90 19.97 128.12 17.01 123.24 14.22 Z" />
<path fill="#f0f0f0" opacity="1.00" d=" M 41.34 12.52 C 42.05 11.53 42.50 9.68 44.12 9.99 C 45.04 11.08 45.75 12.33 46.46 13.56 C 59.42 37.01 72.41 60.45 85.41 83.89 C 87.14 87.07 89.16 90.14 90.27 93.61 C 74.62 103.61 59.46 114.34 43.86 124.42 C 41.53 123.42 39.37 122.10 37.32 120.63 C 26.91 113.52 16.39 106.55 5.91 99.55 C 3.87 98.23 1.82 96.92 0.00 95.31 L 0.00 87.04 C 13.82 62.22 27.48 37.32 41.34 12.52 M 36.75 30.82 C 25.50 51.13 14.33 71.48 3.03 91.76 C 15.80 100.11 28.23 109.00 41.18 117.08 C 41.09 87.39 41.22 57.70 41.13 28.00 C 41.13 26.38 41.27 24.76 41.31 23.13 C 39.34 25.40 38.27 28.26 36.75 30.82 M 45.87 22.86 C 45.91 54.39 45.95 85.91 45.88 117.44 C 58.75 109.01 71.39 100.25 84.27 91.85 C 72.84 71.22 61.46 50.58 50.04 29.94 C 48.68 27.56 47.60 25.01 45.87 22.86 Z" />
<path fill="#f0f0f0" opacity="1.00" d=" M 161.89 24.97 C 163.01 23.98 164.63 24.36 165.99 24.24 C 183.66 24.28 201.33 24.28 219.00 24.24 C 220.36 24.21 221.71 24.46 223.04 24.73 C 223.14 52.15 223.04 79.58 223.09 107.01 C 223.08 109.34 223.20 111.68 222.91 114.00 C 222.12 115.46 220.33 114.83 219.00 115.00 C 201.34 115.00 183.67 115.00 166.00 115.00 C 164.69 114.78 162.71 115.51 161.95 114.03 C 161.41 111.73 161.75 109.34 161.68 107.00 C 161.70 82.34 161.69 57.67 161.69 33.01 C 161.71 30.33 161.51 27.63 161.89 24.97 M 165.97 28.09 L 166.88 28.84 L 166.28 28.80 L 165.07 28.59 C 165.09 35.39 165.09 42.19 165.05 48.99 C 165.19 50.30 164.80 51.92 165.86 52.94 C 167.52 53.47 169.29 53.23 171.00 53.29 C 187.03 53.15 203.06 53.44 219.08 53.14 C 219.98 50.51 219.67 47.71 219.70 44.99 C 219.68 39.75 219.67 34.52 219.72 29.28 C 219.33 28.95 218.54 28.31 218.15 27.98 C 200.76 28.09 183.36 27.86 165.97 28.09 M 165.98 57.09 L 166.87 57.84 L 166.28 57.80 L 165.07 57.59 C 165.09 64.39 165.09 71.19 165.05 78.00 C 165.18 79.31 164.82 80.92 165.87 81.95 C 167.52 82.45 169.28 82.23 170.99 82.29 C 187.02 82.15 203.05 82.44 219.08 82.14 C 219.98 79.52 219.67 76.72 219.70 74.00 C 219.68 68.76 219.67 63.52 219.72 58.28 C 219.33 57.96 218.54 57.30 218.14 56.98 C 200.76 57.09 183.37 56.87 165.98 57.09 M 165.99 86.09 L 166.88 86.84 L 166.28 86.80 L 165.07 86.59 C 165.09 93.39 165.09 100.19 165.05 106.99 C 165.19 108.30 164.80 109.92 165.86 110.94 C 167.52 111.47 169.29 111.23 171.00 111.29 C 187.03 111.15 203.06 111.44 219.08 111.14 C 219.98 108.51 219.67 105.71 219.70 102.99 C 219.70 97.72 219.62 92.43 219.77 87.16 C 218.68 86.29 217.41 85.78 215.99 85.97 C 199.32 86.09 182.65 85.86 165.99 86.09 Z" />
<path fill="#f0f0f0" opacity="1.00" d=" M 231.08 27.19 C 235.88 27.42 240.74 26.72 245.51 27.46 L 246.12 28.04 C 246.74 32.73 246.35 37.48 246.19 42.18 C 241.48 42.33 236.72 42.80 232.04 42.09 L 231.43 41.57 C 230.59 36.84 231.37 31.97 231.04 27.19 L 231.08 27.19 M 234.96 30.98 C 234.93 33.44 234.91 35.89 234.92 38.35 C 237.36 39.30 239.99 39.04 242.49 38.47 C 242.99 35.97 243.21 33.38 242.35 30.93 C 239.89 30.96 237.42 30.96 234.96 30.98 Z" />
<path fill="#f0f0f0" opacity="1.00" d=" M 173.28 37.14 C 173.76 35.05 177.20 35.79 176.85 37.94 C 176.78 40.60 177.96 44.19 175.00 45.68 C 171.88 43.98 173.23 40.01 173.28 37.14 Z" />
<path fill="#f0f0f0" opacity="1.00" d=" M 184.95 37.94 C 184.67 36.18 186.45 35.59 187.81 36.16 C 188.90 39.00 188.31 42.10 188.12 45.05 C 187.36 45.02 185.84 44.95 185.08 44.91 C 184.94 42.59 184.79 40.27 184.95 37.94 Z" />
<path fill="#f0f0f0" opacity="1.00" d=" M 196.96 35.99 C 198.99 35.38 200.52 37.00 200.00 39.00 C 199.98 41.26 200.88 46.40 196.96 44.98 C 195.94 42.18 196.03 38.82 196.96 35.99 Z" />
<path fill="#f0f0f0" opacity="1.00" d=" M 208.04 37.94 C 207.65 36.03 210.01 36.00 211.23 35.87 C 211.80 38.96 211.75 42.12 211.29 45.22 C 210.56 45.08 209.09 44.81 208.36 44.67 C 207.69 42.52 208.07 40.17 208.04 37.94 Z" />
<path fill="#f0f0f0" opacity="1.00" d=" M 232.40 50.41 C 237.01 50.59 241.66 50.06 246.25 50.79 C 246.46 55.61 246.48 60.45 246.22 65.27 C 241.57 65.80 236.75 65.96 232.12 65.34 C 231.89 65.04 231.42 64.42 231.18 64.11 C 230.91 60.03 231.17 55.94 231.08 51.85 C 231.41 51.49 232.07 50.77 232.40 50.41 M 235.04 54.85 C 234.88 57.11 234.57 59.52 235.29 61.70 C 237.58 62.24 240.26 62.37 242.46 61.46 C 243.45 59.34 242.72 56.70 242.63 54.40 C 240.24 54.32 236.93 52.94 235.04 54.85 Z" />
<path fill="#f0f0f0" opacity="1.00" d=" M 173.96 65.03 C 177.24 63.97 177.04 67.92 176.97 70.00 C 176.75 71.25 177.44 73.21 175.98 73.88 C 174.82 75.14 172.78 73.41 173.09 72.03 C 173.20 69.73 172.46 67.00 173.96 65.03 Z" />
<path fill="#f0f0f0" opacity="1.00" d=" M 184.95 66.95 C 184.65 65.17 186.46 64.59 187.82 65.16 C 188.90 68.00 188.31 71.11 188.12 74.05 C 187.36 74.02 185.84 73.95 185.08 73.91 C 184.94 71.59 184.80 69.27 184.95 66.95 Z" />
<path fill="#f0f0f0" opacity="1.00" d=" M 196.82 64.84 C 198.02 65.03 200.36 65.04 199.96 66.95 C 200.03 68.99 200.07 71.04 199.88 73.07 C 199.54 74.36 196.83 74.92 196.59 73.22 C 196.07 70.45 196.31 67.59 196.82 64.84 Z" />
<path fill="#f0f0f0" opacity="1.00" d=" M 208.04 66.94 C 207.65 65.02 210.01 65.01 211.23 64.87 C 211.60 67.87 212.10 71.03 211.14 73.98 C 206.68 75.40 208.20 69.43 208.04 66.94 Z" />
<path fill="#f0f0f0" opacity="1.00" d=" M 231.97 73.92 C 236.67 73.41 241.43 73.71 246.16 73.86 C 246.39 78.55 246.73 83.33 246.09 87.99 C 245.81 88.20 245.25 88.62 244.97 88.83 C 240.70 89.05 236.39 89.11 232.13 88.76 C 231.91 88.53 231.48 88.08 231.26 87.86 C 230.94 83.59 231.01 79.28 231.18 75.00 C 231.38 74.73 231.77 74.19 231.97 73.92 M 234.93 77.66 C 234.91 80.13 234.92 82.60 234.96 85.07 C 237.42 85.16 239.88 85.17 242.35 85.10 C 243.21 82.64 242.99 80.03 242.46 77.53 C 239.96 77.05 237.39 76.89 234.93 77.66 Z" />
<path fill="#f0f0f0" opacity="1.00" d=" M 173.28 95.14 C 173.77 93.05 177.20 93.78 176.85 95.94 C 176.78 98.60 177.96 102.19 175.00 103.68 C 171.88 101.98 173.23 98.01 173.28 95.14 Z" />
<path fill="#f0f0f0" opacity="1.00" d=" M 184.95 95.94 C 184.66 94.18 186.45 93.60 187.81 94.15 C 188.91 96.99 188.31 100.10 188.12 103.05 C 187.36 103.01 185.84 102.94 185.08 102.91 C 184.94 100.59 184.79 98.26 184.95 95.94 Z" />
<path fill="#f0f0f0" opacity="1.00" d=" M 196.96 94.00 C 198.99 93.38 200.52 94.99 200.00 97.00 C 199.97 99.26 200.89 104.38 196.96 102.99 C 195.94 100.19 196.04 96.83 196.96 94.00 Z" />
<path fill="#f0f0f0" opacity="1.00" d=" M 208.04 95.95 C 207.65 94.03 210.00 93.99 211.24 93.87 C 211.60 96.87 212.10 100.04 211.14 102.99 C 206.67 104.38 208.21 98.43 208.04 95.95 Z" />
<path fill="#f0f0f0" opacity="1.00" d=" M 77.33 103.07 C 81.11 100.50 84.82 97.75 88.95 95.73 C 89.25 96.04 89.85 96.66 90.15 96.98 C 89.06 99.49 87.34 101.67 85.94 104.01 C 73.15 124.48 60.31 144.92 47.58 165.43 C 46.31 167.18 45.52 170.13 42.91 170.12 C 41.55 168.76 40.66 167.03 39.63 165.44 C 26.38 144.37 13.31 123.19 0.00 102.16 L 0.00 96.31 C 14.65 106.07 29.17 116.05 43.93 125.64 C 54.92 117.92 66.19 110.59 77.33 103.07 M 9.59 108.49 C 11.34 111.12 13.13 113.72 14.76 116.43 C 23.29 130.27 32.15 143.92 40.55 157.83 C 40.84 158.04 41.40 158.46 41.68 158.67 C 41.44 157.12 41.16 155.57 41.23 154.00 C 41.29 145.95 41.13 137.91 41.31 129.87 C 30.83 122.62 20.16 115.60 9.59 108.49 M 45.87 129.88 C 45.77 139.54 46.01 149.21 45.71 158.87 C 47.92 156.32 49.39 153.23 51.26 150.43 C 60.12 136.43 68.73 122.25 77.82 108.39 C 67.11 115.45 56.41 122.56 45.87 129.88 Z" />
<path fill="#f0f0f0" opacity="1.00" d=" M 231.99 97.11 C 236.69 96.75 241.40 97.01 246.10 97.01 C 246.42 101.67 246.75 106.44 246.06 111.05 C 245.82 111.26 245.35 111.68 245.11 111.90 C 240.68 112.13 236.23 111.92 231.80 112.00 C 230.41 107.52 231.24 102.68 231.19 98.06 C 231.39 97.82 231.79 97.34 231.99 97.11 M 234.92 100.92 C 234.92 103.32 234.92 105.71 234.93 108.11 C 237.19 108.44 239.47 108.48 241.75 108.51 C 243.30 106.27 243.81 102.48 241.60 100.54 C 239.38 100.15 237.09 100.30 234.92 100.92 Z" />
<path fill="#f0f0f0" opacity="1.00" d=" M 162.03 123.10 C 190.01 122.94 217.99 122.94 245.97 123.10 C 246.78 127.69 246.23 132.36 246.40 136.99 C 246.33 138.99 246.65 141.07 246.07 143.01 C 245.28 144.50 243.33 143.79 242.01 144.00 C 215.98 143.97 189.96 144.04 163.94 143.96 C 162.19 144.35 161.46 142.38 161.68 141.00 C 161.82 135.03 161.33 129.03 162.03 123.10 M 166.22 126.45 C 164.10 129.91 165.33 134.25 165.14 138.09 C 164.88 139.79 166.63 140.47 168.01 140.26 C 191.67 140.28 215.34 140.23 239.00 140.29 C 240.23 140.15 242.14 140.62 242.71 139.13 C 243.13 136.11 242.92 133.04 242.92 130.00 C 243.06 128.69 242.41 127.53 241.77 126.45 C 216.59 126.50 191.41 126.50 166.22 126.45 Z" />
</g>
</svg>
