<?xml version="1.0" encoding="UTF-8" ?>
<!DOCTYPE svg PUBLIC "-//W3C//DTD SVG 1.1//EN" "http://www.w3.org/Graphics/SVG/1.1/DTD/svg11.dtd">
<svg width="182pt" height="185pt" viewBox="0 0 182 185" version="1.1" xmlns="http://www.w3.org/2000/svg">
<g id="#d95353e4">
<path fill="#d95353" opacity="0.89" d=" M 159.33 183.28 C 160.97 182.69 162.67 182.30 164.40 182.10 C 163.29 183.96 160.83 184.44 158.83 184.18 L 158.60 184.16 C 158.78 183.94 159.15 183.50 159.33 183.28 Z" />
</g>
<g id="#f0f0f0ff">
<path fill="#f0f0f0" opacity="1.00" d=" M 118.96 1.45 C 123.11 0.19 128.32 1.79 130.20 5.92 C 133.79 12.98 138.27 19.59 141.40 26.86 C 141.62 26.88 142.06 26.90 142.29 26.91 L 142.83 27.20 L 142.91 27.76 C 143.05 28.04 143.31 28.60 143.44 28.88 C 150.05 28.76 157.24 27.42 163.33 30.73 C 169.15 33.23 172.25 39.89 171.96 46.00 C 171.96 59.70 171.92 73.40 171.97 87.10 C 174.96 87.26 177.95 87.29 180.94 87.26 C 180.96 101.64 180.93 116.02 180.96 130.40 C 177.95 130.35 174.94 130.43 171.96 130.87 C 171.94 142.92 171.96 154.98 171.96 167.04 C 171.98 170.07 171.34 173.15 169.83 175.80 C 168.31 178.11 166.16 179.91 164.46 182.08 L 164.40 182.10 C 162.67 182.30 160.97 182.69 159.33 183.28 C 159.15 183.50 158.78 183.94 158.60 184.16 L 158.16 184.51 C 155.56 183.60 152.71 184.02 150.00 183.92 C 105.66 183.98 61.31 183.92 16.96 183.95 C 12.52 184.02 7.95 182.40 4.91 179.09 C 2.89 176.86 0.77 174.22 1.00 171.02 C 0.99 128.01 1.02 85.00 0.99 41.99 C 1.04 40.61 0.99 39.16 1.70 37.93 C 4.57 32.31 10.68 28.54 17.00 28.61 C 33.68 28.59 50.35 28.60 67.03 28.63 C 70.97 28.77 74.10 25.94 77.44 24.28 C 88.42 18.33 99.18 11.96 110.20 6.08 C 113.13 4.56 115.83 2.56 118.96 1.45 M 120.37 6.19 C 113.63 9.90 107.05 13.90 100.16 17.33 L 101.17 18.03 L 100.71 18.28 L 99.34 18.14 C 93.48 20.86 88.11 24.50 82.27 27.28 L 82.94 28.20 L 82.85 28.25 L 81.41 28.09 C 75.45 30.72 70.14 34.58 64.25 37.32 L 65.09 38.11 L 64.76 38.29 L 63.33 38.18 C 60.12 39.56 57.13 41.43 54.16 43.27 C 54.06 43.72 53.84 44.62 53.74 45.06 C 60.49 45.36 67.25 45.12 74.00 45.20 C 97.75 45.12 121.51 45.36 145.26 45.08 C 144.98 42.84 143.79 40.93 142.73 39.00 C 136.68 28.41 131.11 17.56 124.87 7.09 C 123.44 6.63 121.90 5.39 120.37 6.19 M 7.21 38.29 C 6.42 40.16 4.98 41.88 4.97 43.98 C 4.93 84.98 4.99 125.99 4.95 166.99 C 4.85 173.01 10.03 178.51 15.98 179.02 C 62.32 179.05 108.66 179.01 155.00 179.04 C 156.98 179.12 158.85 178.41 160.74 177.90 C 162.97 175.95 165.60 174.05 166.47 171.07 C 167.44 168.49 167.15 165.69 167.19 163.00 C 167.08 152.29 167.36 141.57 167.05 130.87 C 157.43 129.81 147.70 130.89 138.04 130.30 C 129.67 129.61 121.91 123.38 120.05 115.09 C 118.13 107.42 119.61 98.20 125.90 92.87 C 128.96 89.48 133.56 88.06 137.94 87.37 C 147.64 87.02 157.37 87.58 167.07 87.08 C 167.30 75.73 167.15 64.37 167.16 53.01 C 167.57 51.14 165.85 49.57 164.02 49.98 C 117.01 50.01 70.00 49.98 23.00 50.00 C 20.57 49.86 17.64 50.71 16.05 48.30 C 16.43 47.54 17.17 46.01 17.54 45.25 C 24.68 45.10 31.83 45.30 38.98 45.16 C 40.37 45.24 41.52 44.34 42.69 43.72 C 47.31 40.80 52.27 38.48 56.96 35.69 C 56.99 35.27 57.04 34.43 57.06 34.01 C 54.75 33.46 52.35 33.67 50.00 33.66 C 38.68 33.72 27.35 33.62 16.03 33.70 C 12.44 33.51 9.81 36.25 7.21 38.29 M 145.74 34.00 C 147.89 37.58 149.73 41.36 151.98 44.88 C 157.00 45.61 162.15 45.13 167.22 45.03 C 166.77 39.83 162.95 35.36 157.99 33.87 C 153.92 33.47 149.81 33.58 145.74 34.00 M 125.22 102.36 C 123.48 108.30 124.01 115.33 128.28 120.11 C 131.57 123.49 136.21 125.74 141.00 125.40 C 152.67 125.18 164.38 125.78 176.03 125.08 C 176.03 114.32 176.07 103.57 176.01 92.81 C 174.35 92.50 172.68 92.24 171.00 92.28 C 160.67 92.34 150.33 92.26 139.99 92.31 C 133.61 92.18 127.71 96.63 125.22 102.36 Z" />
<path fill="#f0f0f0" opacity="1.00" d=" M 29.11 89.97 C 26.92 83.47 32.19 75.90 38.92 75.25 C 41.50 75.02 44.25 75.24 46.49 76.69 C 49.21 78.46 51.30 80.99 53.82 83.01 C 57.41 81.75 61.13 80.47 65.00 80.68 C 68.41 80.78 71.63 82.05 74.87 83.00 C 78.34 79.75 81.74 75.32 86.93 75.21 C 92.13 74.60 97.41 78.03 99.03 82.98 C 100.01 85.58 99.81 88.45 98.96 91.06 C 98.16 93.68 97.72 96.42 96.63 98.94 C 96.30 100.64 97.87 101.71 98.60 103.03 C 103.13 109.11 105.51 116.65 105.35 124.22 C 104.98 124.67 104.25 125.57 103.88 126.03 C 100.03 127.95 95.91 129.26 91.91 130.85 C 84.89 133.52 77.92 136.34 70.89 138.98 C 68.59 139.77 66.41 140.98 63.98 141.33 C 59.92 140.11 56.06 138.31 52.07 136.86 C 43.68 133.63 35.29 130.38 26.90 127.13 C 25.42 126.59 23.51 125.83 23.36 123.99 C 22.40 115.17 26.69 106.82 31.94 100.04 C 30.97 96.69 30.04 93.33 29.11 89.97 M 32.11 88.99 C 33.19 92.76 33.91 96.66 35.38 100.31 C 34.40 101.97 33.25 103.53 32.19 105.14 C 34.75 105.13 37.36 105.48 39.89 104.88 C 43.86 104.95 48.76 103.99 51.78 107.23 C 54.12 109.49 54.17 113.26 52.43 115.89 C 59.47 111.38 69.19 111.36 76.01 116.30 C 75.43 114.56 74.40 112.82 74.76 110.91 C 75.26 108.62 76.82 106.53 78.96 105.55 C 84.60 104.17 90.44 105.19 96.17 104.71 C 95.21 103.39 94.16 102.14 93.10 100.89 C 94.22 96.25 96.04 91.73 96.59 86.98 C 97.04 80.79 89.60 76.16 84.16 79.03 C 80.78 81.06 78.22 84.13 75.30 86.73 C 73.17 85.76 70.98 84.98 68.74 84.32 C 68.74 89.61 68.73 94.90 68.75 100.18 C 65.68 100.19 62.61 100.20 59.54 100.19 C 59.54 94.90 59.60 89.60 59.53 84.30 C 57.29 84.94 55.20 86.04 52.94 86.61 C 49.11 83.68 46.32 78.46 41.00 78.25 C 35.44 77.67 30.35 83.58 32.11 88.99 M 41.44 112.01 C 41.29 114.95 46.36 116.67 47.28 113.42 C 46.43 113.37 44.74 113.27 43.90 113.22 C 42.47 110.49 45.15 110.19 47.14 110.50 C 46.56 106.96 41.06 108.99 41.44 112.01 M 80.53 111.84 C 80.21 114.92 85.27 116.65 86.45 113.46 C 85.55 113.39 83.76 113.25 82.87 113.18 C 81.53 110.44 84.28 110.24 86.21 110.51 C 85.64 107.03 80.28 108.90 80.53 111.84 M 55.99 116.71 C 51.60 118.62 47.73 123.05 48.29 128.09 C 48.56 130.12 49.20 132.73 51.45 133.37 C 55.62 135.12 59.92 136.55 64.06 138.39 C 65.34 137.88 66.64 137.41 67.93 136.91 C 71.08 135.66 74.28 134.53 77.37 133.14 C 80.94 129.68 80.04 123.44 76.77 120.04 C 71.47 114.67 62.74 113.80 55.99 116.71 M 77.32 117.16 C 81.34 120.73 83.48 126.53 81.36 131.69 C 86.93 129.48 92.50 127.27 98.11 125.15 C 99.59 124.54 101.08 123.97 102.54 123.31 C 102.30 121.73 101.98 120.17 101.64 118.62 C 94.78 118.65 87.92 118.88 81.07 118.63 C 79.63 118.81 78.49 117.81 77.32 117.16 M 26.31 119.33 C 26.33 120.75 26.35 122.17 26.37 123.59 C 33.11 126.23 39.93 128.72 46.58 131.60 C 46.19 129.67 45.73 127.74 45.72 125.76 C 46.43 123.12 47.45 120.56 49.30 118.49 C 41.66 119.27 33.89 118.02 26.31 119.33 Z" />
<path fill="#f0f0f0" opacity="1.00" d=" M 39.84 83.63 C 43.39 84.26 45.45 87.57 47.90 89.87 C 45.01 91.64 42.37 93.78 39.87 96.06 C 39.16 93.03 38.05 90.09 37.55 87.02 C 37.12 85.34 38.81 84.52 39.84 83.63 Z" />
<path fill="#f0f0f0" opacity="1.00" d=" M 80.47 89.75 C 82.85 87.53 85.00 84.93 88.01 83.52 C 89.49 84.23 90.63 85.36 91.31 86.85 C 90.07 89.84 89.51 93.05 88.46 96.10 C 86.03 93.71 83.37 91.55 80.47 89.75 Z" />
<path fill="#f0f0f0" opacity="1.00" d=" M 137.00 111.89 C 134.85 108.03 137.87 103.03 142.04 102.36 C 143.71 102.41 145.36 102.75 147.03 102.89 L 147.90 103.24 C 148.55 104.81 149.41 106.31 149.83 107.97 C 150.37 110.94 148.82 114.36 145.85 115.38 C 142.53 116.85 138.39 115.27 137.00 111.89 Z" />
<path fill="#f0f0f0" opacity="1.00" d=" M 64.08 127.69 C 62.38 126.35 58.51 124.24 60.98 121.78 C 63.24 121.41 66.81 120.43 68.17 122.88 C 68.56 125.38 65.71 126.47 64.08 127.69 Z" />
</g>
</svg>
