<?xml version="1.0" encoding="UTF-8" ?>
<!DOCTYPE svg PUBLIC "-//W3C//DTD SVG 1.1//EN" "http://www.w3.org/Graphics/SVG/1.1/DTD/svg11.dtd">
<svg width="63pt" height="54pt" viewBox="0 0 63 54" version="1.1" xmlns="http://www.w3.org/2000/svg">
<g id="#f26060ff">
<path fill="#f26060" opacity="1.00" d=" M 61.07 0.00 L 62.30 0.00 C 62.47 0.14 62.82 0.43 63.00 0.58 L 63.00 2.49 C 60.06 14.96 57.66 27.55 54.92 40.07 C 53.84 44.71 53.24 49.48 51.69 54.00 L 50.02 54.00 C 45.53 50.78 41.04 47.58 36.58 44.34 C 35.47 43.73 34.40 42.51 33.01 42.87 C 29.32 44.84 26.71 48.38 22.94 50.20 C 21.11 50.42 21.21 48.00 20.56 46.90 C 18.95 41.67 17.29 36.46 15.65 31.24 C 10.47 29.13 4.99 27.71 0.00 25.16 L 0.00 23.43 C 2.40 22.20 4.92 21.24 7.46 20.33 C 25.33 13.56 43.18 6.72 61.07 0.00 M 44.69 13.62 C 36.80 18.43 28.88 23.19 21.00 28.00 C 20.01 28.68 18.65 29.58 19.02 31.01 C 19.97 35.01 21.25 38.92 22.42 42.86 C 22.68 42.74 23.19 42.51 23.44 42.39 C 24.38 39.55 23.59 36.08 25.65 33.68 C 33.59 26.07 42.08 19.01 49.82 11.20 C 47.85 11.31 46.33 12.69 44.69 13.62 Z" />
</g>
</svg>
