<?xml version="1.0" encoding="UTF-8" ?>
<!DOCTYPE svg PUBLIC "-//W3C//DTD SVG 1.1//EN" "http://www.w3.org/Graphics/SVG/1.1/DTD/svg11.dtd">
<svg width="56pt" height="46pt" viewBox="0 0 56 46" version="1.1" xmlns="http://www.w3.org/2000/svg">
<g id="#f26060ff">
<path fill="#f26060" opacity="1.00" d=" M 37.09 0.00 L 39.24 0.00 C 42.30 0.21 45.09 1.62 47.33 3.67 C 49.97 2.89 52.56 1.93 55.12 0.92 C 53.16 3.28 51.75 6.30 48.70 7.50 C 51.12 6.69 54.32 6.98 55.99 4.68 C 55.01 7.60 52.59 9.51 50.35 11.44 C 50.63 22.80 45.21 34.36 35.65 40.70 C 31.36 43.66 26.29 45.20 21.17 45.92 L 20.70 44.03 L 21.08 45.95 L 19.47 46.00 L 14.55 46.00 C 10.18 45.39 6.02 43.95 1.99 42.21 C 1.91 41.87 1.74 41.18 1.65 40.84 C 7.10 41.32 12.47 39.32 16.85 36.18 C 12.06 35.70 8.09 32.49 6.11 28.19 C 7.85 28.10 9.60 28.03 11.35 27.97 C 8.90 26.82 6.24 25.71 4.65 23.39 C 2.98 21.40 2.52 18.78 2.04 16.31 C 3.33 16.70 5.90 17.48 7.18 17.88 C 5.27 15.72 3.18 13.46 2.63 10.52 C 1.87 7.59 2.76 4.63 3.79 1.89 C 9.37 9.26 18.28 13.64 27.42 14.35 C 27.24 11.49 27.19 8.43 28.79 5.92 C 30.42 2.72 33.71 0.83 37.09 0.00 Z" />
</g>
</svg>
