<?xml version="1.0" encoding="UTF-8" ?>
<!DOCTYPE svg PUBLIC "-//W3C//DTD SVG 1.1//EN" "http://www.w3.org/Graphics/SVG/1.1/DTD/svg11.dtd">
<svg width="39pt" height="32pt" viewBox="0 0 39 32" version="1.1" xmlns="http://www.w3.org/2000/svg">
<g id="#f8f8f8ff">
<path fill="#f8f8f8" opacity="1.00" d=" M 26.08 0.00 L 27.87 0.00 C 29.76 0.35 31.51 1.20 32.90 2.54 C 34.58 2.02 36.25 1.47 37.94 0.99 C 37.07 2.57 35.92 3.95 34.54 5.11 C 35.67 4.81 37.92 4.21 39.05 3.91 C 37.83 5.40 36.46 6.75 35.03 8.03 C 35.27 16.26 31.09 24.65 23.93 28.88 C 20.91 30.76 17.38 31.67 13.86 32.00 L 11.15 32.00 C 7.22 31.85 3.62 30.25 0.00 28.90 L 0.00 28.45 C 4.19 28.76 8.35 27.65 11.78 25.21 C 8.46 24.74 5.52 22.69 4.26 19.52 C 5.19 19.53 7.04 19.53 7.96 19.54 C 4.44 18.27 1.62 15.28 1.42 11.39 C 2.61 11.72 3.79 12.05 4.98 12.38 C 1.87 9.71 0.66 5.21 2.57 1.46 C 6.75 6.31 12.73 9.62 19.19 9.95 C 18.05 5.39 21.46 0.58 26.08 0.00 Z" />
</g>
</svg>
