<?xml version="1.0" encoding="UTF-8" ?>
<!DOCTYPE svg PUBLIC "-//W3C//DTD SVG 1.1//EN" "http://www.w3.org/Graphics/SVG/1.1/DTD/svg11.dtd">
<svg width="65pt" height="46pt" viewBox="0 0 65 46" version="1.1" xmlns="http://www.w3.org/2000/svg">
<g id="#f26060ff">
<path fill="#f26060" opacity="1.00" d=" M 14.64 0.00 L 50.22 0.00 C 54.17 0.33 58.59 0.47 61.73 3.22 C 64.57 5.80 64.76 9.93 65.00 13.51 L 65.00 30.51 C 64.76 34.63 64.39 39.26 61.35 42.38 C 58.51 45.24 54.24 45.64 50.43 46.00 L 15.62 46.00 C 11.49 45.74 6.94 45.21 3.79 42.24 C 0.89 39.48 0.34 35.29 0.00 31.50 L 0.00 13.52 C 0.20 9.92 0.31 5.73 3.26 3.20 C 6.40 0.53 10.73 0.34 14.64 0.00 M 25.01 14.76 C 25.32 20.36 24.30 26.14 25.59 31.61 C 27.32 32.44 28.97 31.27 30.46 30.51 C 34.49 28.29 38.66 26.32 42.62 23.98 C 42.70 23.44 42.85 22.36 42.92 21.82 C 37.86 18.47 32.30 15.87 26.82 13.25 C 26.37 13.63 25.47 14.38 25.01 14.76 Z" />
</g>
</svg>
